<?xml version="1.0" encoding="UTF-8"?>
<svg width="400" height="400" viewBox="0 0 400 400" fill="none" xmlns="http://www.w3.org/2000/svg">
    <!-- 대각선 막대와 손잡이 -->
    <path d="M160 160 L240 240" stroke="#A0522D" stroke-width="16" stroke-linecap="round"/>
    <path d="M240 240 L280 280" stroke="#A0522D" stroke-width="16" stroke-linecap="round"/>
    
    <!-- 상단 당고 (원숭이) -->
    <circle cx="160" cy="160" r="35" fill="#8B4513"/>
    <!-- 원숭이 귀 -->
    <circle cx="145" cy="145" r="8" fill="#6B3E26"/>
    <circle cx="175" cy="145" r="8" fill="#6B3E26"/>
    <!-- 귀여운 표정 -->
    <path d="M150 165 Q160 170 170 165" stroke="#FFE4C4" stroke-width="2"/>
    <circle cx="155" cy="155" r="3" fill="#FFE4C4"/>
    <circle cx="165" cy="155" r="3" fill="#FFE4C4"/>

    <!-- 중간 당고 (앵무새) -->
    <circle cx="200" cy="200" r="35" fill="#32CD32"/>
    <!-- 앵무새 부리 -->
    <path d="M195 195 Q200 205 205 195" fill="#FFD700"/>
    <!-- 화려한 깃털 -->
    <path d="M180 185 Q200 180 220 185" stroke="#FF1493" stroke-width="3"/>
    <path d="M180 190 Q200 185 220 190" stroke="#4169E1" stroke-width="3"/>
    <!-- 밝은 표정 -->
    <circle cx="195" cy="195" r="2" fill="#3F1F1F"/>
    <circle cx="205" cy="195" r="2" fill="#3F1F1F"/>

    <!-- 하단 당고 (나비) -->
    <circle cx="240" cy="240" r="35" fill="#FFB6C1"/>
    <!-- 나비 날개 -->
    <path d="M220 230 Q230 220 240 230" stroke="#FF69B4" stroke-width="3" fill="#FF69B4"/>
    <path d="M240 230 Q250 220 260 230" stroke="#FF69B4" stroke-width="3" fill="#FF69B4"/>
    <!-- 더듬이 -->
    <path d="M235 225 L230 215" stroke="#3F1F1F" stroke-width="1"/>
    <path d="M245 225 L250 215" stroke="#3F1F1F" stroke-width="1"/>
    <!-- 귀여운 표정 -->
    <path d="M235 245 Q240 248 245 245" stroke="#3F1F1F" stroke-width="2"/>
</svg> 