<?xml version="1.0" encoding="UTF-8"?>
<svg width="400" height="400" viewBox="0 0 400 400" fill="none" xmlns="http://www.w3.org/2000/svg">
    <!-- 대각선 막대와 손잡이 -->
    <path d="M160 160 L240 240" stroke="#A0522D" stroke-width="16" stroke-linecap="round"/>
    <path d="M240 240 L280 280" stroke="#A0522D" stroke-width="16" stroke-linecap="round"/>
    
    <!-- 상단 당고 (닌자) -->
    <circle cx="160" cy="160" r="35" fill="#2F4F4F"/>
    <!-- 두건 매듭 -->
    <path d="M180 150 L190 145" stroke="#000000" stroke-width="3"/>
    <path d="M180 155 L190 150" stroke="#000000" stroke-width="3"/>
    <!-- 날카로운 표정 -->
    <path d="M150 165 Q160 168 170 165" stroke="#FFFFFF" stroke-width="2"/>
    <path d="M155 155 L150 150" stroke="#FFFFFF" stroke-width="2"/>
    <path d="M165 155 L170 150" stroke="#FFFFFF" stroke-width="2"/>

    <!-- 중간 당고 (수리검) -->
    <circle cx="200" cy="200" r="35" fill="#C0C0C0"/>
    <!-- 수리검 날 -->
    <path d="M185 200 L215 200" stroke="#808080" stroke-width="2"/>
    <path d="M200 185 L200 215" stroke="#808080" stroke-width="2"/>
    <!-- 집중하는 표정 -->
    <path d="M190 205 Q200 210 210 205" stroke="#3F1F1F" stroke-width="2"/>
    <circle cx="195" cy="195" r="2" fill="#3F1F1F"/>
    <circle cx="205" cy="195" r="2" fill="#3F1F1F"/>

    <!-- 하단 당고 (용) -->
    <circle cx="240" cy="240" r="35" fill="#8B0000"/>
    <!-- 용 비늘 -->
    <path d="M225 235 Q240 225 255 235" stroke="#CD5C5C" stroke-width="2"/>
    <path d="M225 245 Q240 235 255 245" stroke="#CD5C5C" stroke-width="2"/>
    <!-- 용맹한 표정 -->
    <path d="M230 245 Q240 250 250 245" stroke="#FFD700" stroke-width="2"/>
    <path d="M235 235 L230 230" stroke="#FFD700" stroke-width="2"/>
    <path d="M245 235 L250 230" stroke="#FFD700" stroke-width="2"/>
</svg> 