<?xml version="1.0" encoding="UTF-8"?>
<svg width="400" height="400" viewBox="0 0 400 400" fill="none" xmlns="http://www.w3.org/2000/svg">
    <!-- 대각선 막대와 손잡이 -->
    <path d="M160 160 L240 240" stroke="#A0522D" stroke-width="16" stroke-linecap="round"/>
    <path d="M240 240 L280 280" stroke="#A0522D" stroke-width="16" stroke-linecap="round"/>
    
    <!-- 상단 당고 (회색) -->
    <circle cx="160" cy="160" r="35" fill="#A9A9A9"/>
    <!-- 안개 효과 -->
    <path d="M145 155 Q160 145 175 155" stroke="#C0C0C0" stroke-width="3" fill-opacity="0.5"/>
    <path d="M145 165 Q160 155 175 165" stroke="#C0C0C0" stroke-width="3" fill-opacity="0.5"/>
    <!-- 몽환적인 표정 -->
    <path d="M150 165 Q160 170 170 165" stroke="#FFFFFF" stroke-width="2"/>
    <circle cx="155" cy="155" r="3" fill="#FFFFFF"/>
    <circle cx="165" cy="155" r="3" fill="#FFFFFF"/>

    <!-- 중간 당고 (하얀색) -->
    <circle cx="200" cy="200" r="35" fill="#FFFFFF"/>
    <!-- 안개 효과 -->
    <path d="M185 195 Q200 185 215 195" stroke="#F5F5F5" stroke-width="4"/>
    <path d="M185 205 Q200 195 215 205" stroke="#F5F5F5" stroke-width="4"/>
    <!-- 평화로운 표정 -->
    <path d="M190 205 Q200 210 210 205" stroke="#3F1F1F" stroke-width="2"/>
    <circle cx="195" cy="195" r="2" fill="#3F1F1F"/>
    <circle cx="205" cy="195" r="2" fill="#3F1F1F"/>

    <!-- 하단 당고 (연한 파랑) -->
    <circle cx="240" cy="240" r="35" fill="#B0E0E6"/>
    <!-- 안개 효과 -->
    <path d="M225 235 Q240 225 255 235" stroke="#ADD8E6" stroke-width="3"/>
    <path d="M225 245 Q240 235 255 245" stroke="#ADD8E6" stroke-width="3"/>
    <!-- 차분한 표정 -->
    <path d="M230 245 Q240 250 250 245" stroke="#3F1F1F" stroke-width="2"/>
    <circle cx="235" cy="235" r="2" fill="#3F1F1F"/>
    <circle cx="245" cy="235" r="2" fill="#3F1F1F"/>
</svg> 