<?xml version="1.0" encoding="UTF-8"?>
<svg width="400" height="400" viewBox="0 0 400 400" fill="none" xmlns="http://www.w3.org/2000/svg">
    <!-- 대각선 막대와 손잡이 -->
    <path d="M160 160 L240 240" stroke="#A0522D" stroke-width="16" stroke-linecap="round"/>
    <path d="M240 240 L280 280" stroke="#A0522D" stroke-width="16" stroke-linecap="round"/>
    
    <!-- 상단 당고 (매화) -->
    <circle cx="160" cy="160" r="35" fill="#FFE4E1"/>
    <!-- 매화 꽃잎 -->
    <path d="M150 150 Q160 145 170 150" stroke="#FFB7C5" stroke-width="3"/>
    <path d="M145 160 Q155 155 165 160" stroke="#FFB7C5" stroke-width="3"/>
    <path d="M155 145 Q160 140 165 145" stroke="#FFB7C5" stroke-width="3"/>
    <!-- 우아한 표정 -->
    <path d="M150 165 Q160 170 170 165" stroke="#3F1F1F" stroke-width="2"/>
    <path d="M155 155 Q155 153 158 153" stroke="#3F1F1F" stroke-width="2"/>
    <path d="M165 155 Q165 153 162 153" stroke="#3F1F1F" stroke-width="2"/>

    <!-- 중간 당고 (대나무) -->
    <circle cx="200" cy="200" r="35" fill="#90EE90"/>
    <!-- 대나무 잎 -->
    <path d="M185 185 L195 175" stroke="#228B22" stroke-width="2"/>
    <path d="M205 185 L215 175" stroke="#228B22" stroke-width="2"/>
    <path d="M190 195 L200 185" stroke="#228B22" stroke-width="2"/>
    <!-- 평화로운 표정 -->
    <path d="M190 205 Q200 210 210 205" stroke="#3F1F1F" stroke-width="2"/>
    <circle cx="195" cy="195" r="2" fill="#3F1F1F"/>
    <circle cx="205" cy="195" r="2" fill="#3F1F1F"/>

    <!-- 하단 당고 (소나무) -->
    <circle cx="240" cy="240" r="35" fill="#2E8B57"/>
    <!-- 소나무 무늬 -->
    <path d="M225 230 L255 230" stroke="#006400" stroke-width="2"/>
    <path d="M230 240 L250 240" stroke="#006400" stroke-width="2"/>
    <path d="M235 250 L245 250" stroke="#006400" stroke-width="2"/>
    <!-- 고요한 표정 -->
    <path d="M230 245 Q240 250 250 245" stroke="#FFF" stroke-width="2"/>
    <circle cx="235" cy="235" r="3" fill="#FFF"/>
    <circle cx="245" cy="235" r="3" fill="#FFF"/>
</svg> 