<?xml version="1.0" encoding="UTF-8"?>
<svg width="400" height="400" viewBox="0 0 400 400" fill="none" xmlns="http://www.w3.org/2000/svg">
    <!-- 대각선 막대와 손잡이 -->
    <path d="M160 160 L240 240" stroke="#A0522D" stroke-width="16" stroke-linecap="round"/>
    <path d="M240 240 L280 280" stroke="#A0522D" stroke-width="16" stroke-linecap="round"/>
    
    <!-- 상단 당고 (유니콘) -->
    <circle cx="160" cy="160" r="35" fill="#FFB6C1"/>
    <!-- 뿔 -->
    <path d="M155 135 L160 125 L165 135" stroke="#FFD700" stroke-width="3"/>
    <!-- 무지개 갈기 -->
    <path d="M145 150 Q160 140 175 150" stroke="#FF69B4" stroke-width="2"/>
    <path d="M145 155 Q160 145 175 155" stroke="#87CEEB" stroke-width="2"/>
    <!-- 마법같은 표정 -->
    <path d="M150 165 Q160 170 170 165" stroke="#3F1F1F" stroke-width="2"/>
    <circle cx="155" cy="155" r="3" fill="#3F1F1F"/>
    <circle cx="165" cy="155" r="3" fill="#3F1F1F"/>

    <!-- 중간 당고 (드래곤) -->
    <circle cx="200" cy="200" r="35" fill="#32CD32"/>
    <!-- 비늘 무늬 -->
    <path d="M185 195 Q200 185 215 195" stroke="#228B22" stroke-width="3"/>
    <path d="M185 205 Q200 195 215 205" stroke="#228B22" stroke-width="3"/>
    <!-- 용감한 표정 -->
    <path d="M190 205 Q200 210 210 205" stroke="#3F1F1F" stroke-width="2"/>
    <path d="M195 195 L190 190" stroke="#3F1F1F" stroke-width="2"/>
    <path d="M205 195 L210 190" stroke="#3F1F1F" stroke-width="2"/>

    <!-- 하단 당고 (요정) -->
    <circle cx="240" cy="240" r="35" fill="#E6E6FA"/>
    <!-- 요정 날개 -->
    <path d="M225 235 Q240 225 255 235" stroke="#FFF" stroke-width="2" fill-opacity="0.5"/>
    <path d="M225 245 Q240 235 255 245" stroke="#FFF" stroke-width="2" fill-opacity="0.5"/>
    <!-- 반짝이는 표정 -->
    <path d="M230 245 Q240 250 250 245" stroke="#3F1F1F" stroke-width="2"/>
    <circle cx="235" cy="235" r="2" fill="#3F1F1F"/>
    <circle cx="245" cy="235" r="2" fill="#3F1F1F"/>
</svg> 