<?xml version="1.0" encoding="UTF-8"?>
<svg width="400" height="400" viewBox="0 0 400 400" fill="none" xmlns="http://www.w3.org/2000/svg">
    <!-- 대각선 막대와 손잡이 -->
    <path d="M160 160 L240 240" stroke="#A0522D" stroke-width="16" stroke-linecap="round"/>
    <path d="M240 240 L280 280" stroke="#A0522D" stroke-width="16" stroke-linecap="round"/>
    
    <!-- 상단 당고 (강아지) -->
    <circle cx="160" cy="160" r="35" fill="#F4A460"/>
    <!-- 귀 -->
    <path d="M145 145 Q155 140 160 145" stroke="#8B4513" stroke-width="3"/>
    <path d="M175 145 Q165 140 160 145" stroke="#8B4513" stroke-width="3"/>
    <!-- 귀여운 표정 -->
    <path d="M150 165 Q160 170 170 165" stroke="#8B4513" stroke-width="2"/>
    <circle cx="155" cy="155" r="3" fill="#8B4513"/>
    <circle cx="165" cy="155" r="3" fill="#8B4513"/>

    <!-- 중간 당고 (고양이) -->
    <circle cx="200" cy="200" r="35" fill="#808080"/>
    <!-- 수염 -->
    <path d="M185 195 L175 193" stroke="#333333" stroke-width="1"/>
    <path d="M185 200 L175 200" stroke="#333333" stroke-width="1"/>
    <path d="M185 205 L175 207" stroke="#333333" stroke-width="1"/>
    <path d="M215 195 L225 193" stroke="#333333" stroke-width="1"/>
    <path d="M215 200 L225 200" stroke="#333333" stroke-width="1"/>
    <path d="M215 205 L225 207" stroke="#333333" stroke-width="1"/>
    <!-- 도도한 표정 -->
    <path d="M190 205 Q200 210 210 205" stroke="#FFFFFF" stroke-width="2"/>
    <path d="M195 195 L190 190" stroke="#FFFFFF" stroke-width="2"/>
    <path d="M205 195 L210 190" stroke="#FFFFFF" stroke-width="2"/>

    <!-- 하단 당고 (토끼) -->
    <circle cx="240" cy="240" r="35" fill="#FFFFFF"/>
    <!-- 긴 귀 -->
    <path d="M230 220 Q235 210 240 220" stroke="#FFB6C1" stroke-width="3"/>
    <path d="M250 220 Q245 210 240 220" stroke="#FFB6C1" stroke-width="3"/>
    <!-- 순수한 표정 -->
    <path d="M230 245 Q240 250 250 245" stroke="#FF69B4" stroke-width="2"/>
    <circle cx="235" cy="235" r="2" fill="#FF69B4"/>
    <circle cx="245" cy="235" r="2" fill="#FF69B4"/>
</svg> 