<?xml version="1.0" standalone="no"?>
<!DOCTYPE svg PUBLIC "-//W3C//DTD SVG 20010904//EN"
 "http://www.w3.org/TR/2001/REC-SVG-20010904/DTD/svg10.dtd">
<svg version="1.0" xmlns="http://www.w3.org/2000/svg"
 width="2019.000000pt" height="2500.000000pt" viewBox="0 0 2019.000000 2500.000000"
 preserveAspectRatio="xMidYMid meet">

<g transform="translate(0.000000,2500.000000) scale(0.100000,-0.100000)"
fill="#000000" stroke="none">
<path d="M6778 21913 c-8 -10 -25 -36 -38 -58 -66 -114 -365 -571 -406 -622
-48 -59 -44 -86 13 -75 16 3 22 11 21 26 -1 12 17 47 41 79 50 68 160 237 302
465 67 107 107 162 118 162 60 0 130 -174 167 -415 18 -120 35 -154 60 -121
15 22 19 62 5 68 -4 2 -19 59 -33 128 -33 160 -79 286 -124 339 -30 35 -41 41
-73 41 -24 0 -43 -7 -53 -17z"/>
<path d="M4746 21798 c-9 -12 -53 -115 -97 -228 -45 -113 -106 -259 -137 -325
-177 -389 -201 -456 -172 -490 16 -19 44 -19 61 1 13 16 6 26 -26 37 -13 5 26
105 112 292 93 199 143 315 224 523 35 89 66 162 70 162 11 0 27 -56 38 -130
6 -36 15 -180 21 -320 6 -140 13 -265 16 -277 7 -35 40 -29 53 8 15 44 14 79
-3 79 -11 0 -15 34 -20 168 -8 224 -31 423 -55 478 -16 35 -25 44 -45 44 -14
0 -31 -9 -40 -22z"/>
<path d="M6677 20339 c-77 -18 -150 -62 -222 -133 -84 -83 -138 -163 -206
-303 -48 -99 -49 -103 -33 -128 9 -14 22 -25 28 -25 6 0 45 34 86 76 95 96
268 225 351 263 58 26 69 28 124 20 64 -9 223 -68 335 -124 37 -19 95 -41 130
-50 61 -16 65 -16 77 1 7 10 13 23 13 29 0 7 -39 51 -86 99 -220 221 -426 315
-597 275z"/>
<path d="M4749 20220 c-161 -27 -321 -186 -445 -444 -45 -92 -45 -95 -29 -120
10 -14 23 -26 29 -26 6 0 45 34 86 76 74 75 210 182 318 251 54 35 56 36 136
30 66 -5 103 -15 201 -55 66 -27 140 -61 165 -75 40 -23 148 -57 179 -57 6 0
16 12 22 27 9 25 5 32 -73 111 -157 158 -298 248 -436 277 -73 16 -85 16 -153
5z"/>
<path d="M5676 18790 c-103 -13 -261 -49 -340 -77 -153 -55 -300 -146 -369
-228 -71 -86 -96 -202 -63 -290 65 -169 314 -305 643 -351 193 -27 514 -10
671 35 23 7 32 6 33 -2 0 -7 2 -327 4 -712 1 -385 3 -703 4 -707 0 -5 11 -8
24 -8 19 0 24 8 36 57 8 34 40 103 77 168 35 60 80 150 100 199 47 113 153
288 182 301 l22 10 0 476 c0 454 1 477 19 493 10 9 31 44 46 78 24 53 27 70
23 129 -6 84 -34 135 -116 210 -99 92 -251 159 -452 200 -108 23 -428 34 -544
19z m518 -35 c263 -48 481 -167 548 -299 63 -123 16 -261 -126 -367 -102 -76
-129 -92 -215 -127 -463 -189 -1135 -130 -1396 123 -25 25 -58 71 -72 101
-113 248 207 506 717 578 133 19 418 14 544 -9z"/>
<path d="M5439 18502 c-43 -22 -59 -38 -82 -82 -25 -47 -28 -63 -23 -109 13
-137 156 -219 281 -162 152 68 152 287 2 357 -68 31 -113 30 -178 -4z m192
-26 c42 -28 79 -97 79 -147 0 -40 -29 -107 -56 -131 -29 -25 -89 -48 -127 -48
-46 0 -118 39 -144 78 -63 96 -20 228 89 269 45 17 115 8 159 -21z"/>
<path d="M6075 18512 c-73 -34 -125 -115 -125 -192 0 -14 11 -48 24 -77 88
-189 376 -124 376 85 0 141 -151 242 -275 184z m178 -38 c110 -73 97 -243 -23
-304 -134 -68 -296 65 -250 205 39 119 171 167 273 99z"/>
<path d="M10216 18633 c-30 -32 -144 -252 -210 -405 -75 -172 -73 -202 9 -164
48 22 58 52 17 50 -20 -1 -22 3 -17 24 14 57 197 427 225 456 18 19 43 -65
133 -439 29 -120 36 -140 53 -140 27 0 25 17 -45 291 -66 261 -89 327 -120
343 -17 9 -24 7 -45 -16z"/>
<path d="M8143 18628 c-47 -53 -132 -238 -213 -463 -58 -160 -66 -198 -45
-215 22 -18 48 6 42 38 -10 54 164 494 235 595 l20 28 25 -23 c13 -12 85 -142
158 -288 74 -147 143 -274 154 -284 31 -28 53 -14 49 31 -3 32 -6 38 -26 37
-21 -1 -37 27 -142 240 -152 311 -200 367 -257 304z"/>
<path d="M8378 16821 c-71 -28 -113 -57 -162 -112 -63 -70 -89 -143 -90 -249
-1 -75 3 -93 30 -150 54 -114 132 -182 248 -215 261 -75 524 161 476 427 -23
127 -105 234 -218 286 -77 35 -214 42 -284 13z"/>
<path d="M9899 16826 c-103 -40 -184 -109 -227 -193 -52 -100 -52 -235 -1
-340 32 -66 117 -149 186 -180 49 -23 72 -27 153 -27 87 -1 101 2 162 31 81
38 146 102 185 181 25 51 28 67 28 162 0 99 -2 109 -33 172 -38 78 -101 139
-182 176 -67 31 -211 41 -271 18z"/>
<path d="M13302 15588 c-73 -92 -302 -713 -302 -822 0 -43 13 -51 61 -38 41
10 45 36 7 40 -16 2 -28 7 -28 11 0 4 16 60 34 125 58 195 199 558 239 616 14
21 16 20 37 -37 110 -289 162 -468 161 -554 0 -62 10 -79 36 -58 24 20 9 141
-33 274 -57 177 -146 419 -162 438 -18 20 -36 22 -50 5z"/>
<path d="M11412 15537 c-30 -31 -114 -214 -151 -327 -67 -204 -116 -485 -93
-535 13 -28 39 -33 48 -10 4 8 1 22 -5 29 -24 29 24 291 95 511 36 113 114
285 139 305 11 9 18 5 35 -22 20 -34 128 -349 153 -448 11 -43 19 -56 36 -58
12 -2 21 2 21 10 -1 36 -131 441 -162 503 -33 64 -79 81 -116 42z"/>
<path d="M9130 15499 c-311 -32 -587 -143 -728 -292 -136 -145 -129 -304 19
-441 56 -52 241 -156 277 -156 8 0 11 -7 8 -17 -107 -340 -74 -620 79 -663 92
-26 241 7 300 66 63 63 78 124 83 340 l4 191 147 11 c503 39 862 236 888 487
22 210 -230 397 -622 460 -119 20 -336 26 -455 14z m475 -39 c290 -49 508
-175 564 -324 25 -67 26 -96 7 -159 -50 -167 -292 -319 -614 -386 -82 -17
-381 -47 -388 -38 -1 1 -9 35 -17 75 -9 40 -33 111 -53 157 l-36 85 30 35 c47
53 62 122 41 186 -29 86 -101 139 -189 139 -67 0 -107 -18 -152 -68 -62 -68
-65 -169 -8 -250 l32 -45 -40 -86 c-21 -47 -45 -101 -52 -119 -16 -41 -28 -39
-149 20 -213 105 -302 272 -225 426 34 69 141 166 240 219 270 142 653 193
1009 133z m-551 -283 c84 -65 97 -181 28 -258 l-27 -31 -50 54 c-28 29 -62 69
-77 88 -21 28 -29 33 -39 23 -10 -10 -10 -18 2 -39 11 -21 11 -28 2 -31 -7 -3
-23 -22 -35 -44 -12 -22 -26 -38 -32 -36 -19 6 -56 90 -56 128 0 68 30 119 95
161 46 29 141 21 189 -15z m-82 -264 c21 -20 38 -41 38 -45 0 -9 -101 -11
-124 -2 -14 5 -13 11 6 45 12 21 26 39 32 39 6 0 27 -17 48 -37z m-22 -78 c14
0 37 4 51 8 25 6 28 3 61 -71 41 -88 44 -99 57 -166 l9 -49 -89 6 c-79 6 -265
40 -276 51 -4 4 57 158 83 208 13 24 18 27 47 20 17 -3 43 -7 57 -7z m-77
-270 c40 -9 113 -19 162 -23 l90 -7 3 -140 c6 -307 -39 -399 -209 -426 -82
-13 -136 -4 -170 31 -76 76 -82 309 -13 539 14 49 17 52 40 47 14 -4 58 -13
97 -21z"/>
<path d="M9485 15216 c-17 -7 -44 -29 -62 -49 -84 -96 -65 -229 45 -303 95
-65 239 -16 286 98 39 93 -2 201 -95 248 -45 23 -129 26 -174 6z m158 -20 c67
-27 116 -118 103 -189 -16 -85 -89 -147 -173 -147 -60 0 -95 15 -135 57 -106
112 -26 291 130 293 23 0 57 -6 75 -14z"/>
<path d="M13500 13939 c-64 -26 -112 -97 -179 -266 -19 -46 -37 -83 -41 -83
-4 0 -13 19 -21 42 -19 57 -97 176 -140 212 -81 69 -195 95 -272 62 -38 -16
-120 -101 -170 -176 -60 -92 -69 -190 -18 -190 12 0 43 -33 87 -95 47 -68 128
-155 273 -297 113 -110 216 -205 228 -211 32 -15 51 6 139 148 108 175 304
437 340 454 16 8 31 18 32 23 2 4 10 14 17 21 10 11 11 33 4 105 -15 143 -47
215 -113 246 -38 18 -127 20 -166 5z m-640 -79 c-20 -13 -33 -13 -25 0 3 6 14
10 23 10 15 0 15 -2 2 -10z"/>
<path d="M11753 13919 c-69 -20 -115 -89 -199 -292 l-27 -68 -43 88 c-24 48
-63 111 -87 138 -110 124 -261 148 -366 59 -53 -46 -150 -191 -157 -236 -9
-53 2 -86 28 -90 16 -2 40 -29 77 -83 69 -104 492 -525 527 -525 28 0 47 24
129 160 86 142 303 432 336 447 49 24 57 48 49 156 -10 129 -44 201 -110 235
-46 23 -101 27 -157 11z m-648 -79 c-3 -5 -12 -10 -18 -10 -7 0 -6 4 3 10 19
12 23 12 15 0z"/>
<path d="M12070 12069 c-535 -59 -898 -325 -805 -588 115 -327 835 -480 1405
-299 324 103 521 302 480 484 -41 184 -267 329 -607 389 -110 19 -361 27 -473
14z m335 -19 c281 -26 489 -100 619 -220 75 -69 106 -133 106 -215 0 -77 -24
-130 -91 -201 -129 -136 -377 -238 -664 -274 -154 -20 -454 -8 -585 23 -474
112 -653 380 -411 617 199 194 626 307 1026 270z"/>
<path d="M11795 11777 c-67 -38 -114 -132 -99 -200 23 -107 98 -170 202 -169
146 1 236 155 171 290 -46 95 -179 133 -274 79z m190 -20 c53 -30 85 -87 85
-152 0 -64 -32 -122 -85 -153 -56 -32 -148 -28 -197 10 -101 77 -87 246 24
301 48 24 125 21 173 -6z"/>
<path d="M12413 11774 c-94 -56 -123 -183 -64 -277 37 -58 94 -88 165 -89 114
-1 199 83 199 197 0 50 -19 102 -52 139 -53 60 -174 75 -248 30z m187 -14 c55
-28 83 -72 88 -141 8 -110 -53 -181 -162 -187 -76 -4 -129 24 -163 83 -88 155
78 326 237 245z"/>
</g>
</svg>
