<?xml version="1.0" encoding="UTF-8"?>
<svg width="400" height="400" viewBox="0 0 400 400" fill="none" xmlns="http://www.w3.org/2000/svg">
    <!-- 대각선 막대와 손잡이 -->
    <path d="M160 160 L240 240" stroke="#A0522D" stroke-width="16" stroke-linecap="round"/>
    <path d="M240 240 L280 280" stroke="#A0522D" stroke-width="16" stroke-linecap="round"/>
    
    <!-- 상단 당고 (눈사람) -->
    <circle cx="160" cy="160" r="35" fill="#FFFFFF"/>
    <!-- 눈사람 모자 -->
    <path d="M145 140 L175 140" stroke="#FF0000" stroke-width="4"/>
    <path d="M150 140 L150 130" stroke="#FF0000" stroke-width="4"/>
    <!-- 추운 표정 -->
    <path d="M150 165 Q160 168 170 165" stroke="#3F1F1F" stroke-width="2"/>
    <path d="M155 155 L150 150" stroke="#3F1F1F" stroke-width="2"/>
    <path d="M165 155 L170 150" stroke="#3F1F1F" stroke-width="2"/>

    <!-- 중간 당고 (얼음) -->
    <circle cx="200" cy="200" r="35" fill="#ADD8E6"/>
    <!-- 얼음 결정 -->
    <path d="M190 190 L210 190" stroke="#FFFFFF" stroke-width="2"/>
    <path d="M190 200 L210 200" stroke="#FFFFFF" stroke-width="2"/>
    <path d="M200 190 L200 210" stroke="#FFFFFF" stroke-width="2"/>
    <!-- 차가운 표정 -->
    <path d="M190 205 Q200 210 210 205" stroke="#FFFFFF" stroke-width="2"/>
    <circle cx="195" cy="195" r="3" fill="#FFFFFF"/>
    <circle cx="205" cy="195" r="3" fill="#FFFFFF"/>

    <!-- 하단 당고 (스케이트) -->
    <circle cx="240" cy="240" r="35" fill="#F0F8FF"/>
    <!-- 스케이트 날 -->
    <path d="M225 245 L255 245" stroke="#C0C0C0" stroke-width="3"/>
    <path d="M230 245 L230 250" stroke="#C0C0C0" stroke-width="2"/>
    <path d="M250 245 L250 250" stroke="#C0C0C0" stroke-width="2"/>
    <!-- 즐거운 표정 -->
    <path d="M230 235 Q240 240 250 235" stroke="#3F1F1F" stroke-width="2"/>
    <circle cx="235" cy="230" r="2" fill="#3F1F1F"/>
    <circle cx="245" cy="230" r="2" fill="#3F1F1F"/>
</svg> 