<?xml version="1.0" encoding="UTF-8"?>
<svg width="400" height="400" viewBox="0 0 400 400" fill="none" xmlns="http://www.w3.org/2000/svg">
    <!-- 대각선 막대와 손잡이 -->
    <path d="M160 160 L240 240" stroke="#A0522D" stroke-width="16" stroke-linecap="round"/>
    <path d="M240 240 L280 280" stroke="#A0522D" stroke-width="16" stroke-linecap="round"/>
    
    <!-- 상단 당고 (블록) -->
    <circle cx="160" cy="160" r="35" fill="#FF0000"/>
    <!-- 블록 무늬 -->
    <rect x="150" y="150" width="10" height="10" fill="#FF4500"/>
    <rect x="160" y="150" width="10" height="10" fill="#FFD700"/>
    <rect x="150" y="160" width="10" height="10" fill="#4169E1"/>
    <rect x="160" y="160" width="10" height="10" fill="#32CD32"/>
    <!-- 즐거운 표정 -->
    <path d="M150 170 Q160 175 170 170" stroke="#FFFFFF" stroke-width="2"/>
    <circle cx="155" cy="155" r="2" fill="#FFFFFF"/>
    <circle cx="165" cy="155" r="2" fill="#FFFFFF"/>

    <!-- 중간 당고 (로봇) -->
    <circle cx="200" cy="200" r="35" fill="#C0C0C0"/>
    <!-- 기계 부품 -->
    <rect x="190" y="190" width="20" height="20" stroke="#808080" stroke-width="2" fill="none"/>
    <circle cx="200" cy="200" r="5" stroke="#808080" stroke-width="1" fill="none"/>
    <!-- 디지털 표정 -->
    <path d="M190 205 L210 205" stroke="#333333" stroke-width="2"/>
    <rect x="195" y="195" width="4" height="4" fill="#333333"/>
    <rect x="205" y="195" width="4" height="4" fill="#333333"/>

    <!-- 하단 당고 (퍼즐) -->
    <circle cx="240" cy="240" r="35" fill="#9370DB"/>
    <!-- 퍼즐 조각 -->
    <path d="M230 230 L250 230" stroke="#E6E6FA" stroke-width="2"/>
    <path d="M230 240 L250 240" stroke="#E6E6FA" stroke-width="2"/>
    <path d="M230 250 L250 250" stroke="#E6E6FA" stroke-width="2"/>
    <path d="M230 230 L230 250" stroke="#E6E6FA" stroke-width="2"/>
    <path d="M240 230 L240 250" stroke="#E6E6FA" stroke-width="2"/>
    <path d="M250 230 L250 250" stroke="#E6E6FA" stroke-width="2"/>
    <!-- 호기심 표정 -->
    <path d="M230 245 Q240 250 250 245" stroke="#FFFFFF" stroke-width="2"/>
    <circle cx="235" cy="235" r="2" fill="#FFFFFF"/>
    <circle cx="245" cy="235" r="2" fill="#FFFFFF"/>
</svg> 