<?xml version="1.0" encoding="UTF-8"?>
<svg width="400" height="400" viewBox="0 0 400 400" fill="none" xmlns="http://www.w3.org/2000/svg">
    <!-- 대각선 막대와 손잡이 -->
    <path d="M160 160 L240 240" stroke="#A0522D" stroke-width="16" stroke-linecap="round"/>
    <path d="M240 240 L280 280" stroke="#A0522D" stroke-width="16" stroke-linecap="round"/>
    
    <!-- 상단 당고 (커피) -->
    <circle cx="160" cy="160" r="35" fill="#6F4E37"/>
    <!-- 커피 거품 -->
    <circle cx="150" cy="150" r="5" fill="#FFF" fill-opacity="0.7"/>
    <circle cx="170" cy="150" r="4" fill="#FFF" fill-opacity="0.7"/>
    <!-- 활기찬 표정 -->
    <path d="M150 165 Q160 170 170 165" stroke="#FFF" stroke-width="2"/>
    <circle cx="155" cy="155" r="3" fill="#FFF"/>
    <circle cx="165" cy="155" r="3" fill="#FFF"/>

    <!-- 중간 당고 (말차) -->
    <circle cx="200" cy="200" r="35" fill="#88B04B"/>
    <!-- 말차 가루 -->
    <path d="M190 190 Q200 185 210 190" stroke="#658E3D" stroke-width="2"/>
    <path d="M190 195 Q200 190 210 195" stroke="#658E3D" stroke-width="2"/>
    <!-- 차분한 표정 -->
    <path d="M190 205 Q200 210 210 205" stroke="#3F1F1F" stroke-width="2"/>
    <path d="M195 195 L190 195" stroke="#3F1F1F" stroke-width="2"/>
    <path d="M205 195 L210 195" stroke="#3F1F1F" stroke-width="2"/>

    <!-- 하단 당고 (밀크티) -->
    <circle cx="240" cy="240" r="35" fill="#DEB887"/>
    <!-- 우유 거품 -->
    <circle cx="230" cy="230" r="6" fill="#FFF" fill-opacity="0.8"/>
    <circle cx="250" cy="230" r="5" fill="#FFF" fill-opacity="0.8"/>
    <!-- 달콤한 표정 -->
    <path d="M230 245 Q240 250 250 245" stroke="#3F1F1F" stroke-width="2"/>
    <circle cx="235" cy="235" r="3" fill="#3F1F1F"/>
    <circle cx="245" cy="235" r="3" fill="#3F1F1F"/>
</svg> 