<?xml version="1.0" encoding="UTF-8"?>
<svg width="400" height="400" viewBox="0 0 400 400" fill="none" xmlns="http://www.w3.org/2000/svg">
    <!-- 대각선 막대와 손잡이 -->
    <path d="M160 160 L240 240" stroke="#A0522D" stroke-width="16" stroke-linecap="round"/>
    <path d="M240 240 L280 280" stroke="#A0522D" stroke-width="16" stroke-linecap="round"/>
    
    <!-- 상단 당고 (태양) -->
    <circle cx="160" cy="160" r="35" fill="#FFD700"/>
    <!-- 햇살 -->
    <path d="M140 160 L135 160" stroke="#FFA500" stroke-width="2"/>
    <path d="M185 160 L180 160" stroke="#FFA500" stroke-width="2"/>
    <path d="M160 140 L160 135" stroke="#FFA500" stroke-width="2"/>
    <path d="M160 185 L160 180" stroke="#FFA500" stroke-width="2"/>
    <!-- 밝은 표정 -->
    <path d="M150 165 Q160 170 170 165" stroke="#FF4500" stroke-width="2"/>
    <circle cx="155" cy="155" r="3" fill="#FF4500"/>
    <circle cx="165" cy="155" r="3" fill="#FF4500"/>

    <!-- 중간 당고 (구름) -->
    <circle cx="200" cy="200" r="35" fill="#E6E6FA"/>
    <!-- 구름 무늬 -->
    <path d="M185 195 Q200 185 215 195" stroke="#FFFFFF" stroke-width="3"/>
    <path d="M185 200 Q200 190 215 200" stroke="#FFFFFF" stroke-width="3"/>
    <!-- 평화로운 표정 -->
    <path d="M190 205 Q200 210 210 205" stroke="#4169E1" stroke-width="2"/>
    <circle cx="195" cy="195" r="2" fill="#4169E1"/>
    <circle cx="205" cy="195" r="2" fill="#4169E1"/>

    <!-- 하단 당고 (번개) -->
    <circle cx="240" cy="240" r="35" fill="#4B0082"/>
    <!-- 번개 무늬 -->
    <path d="M235 230 L245 240 L235 250" stroke="#FFD700" stroke-width="2"/>
    <path d="M245 230 L235 240 L245 250" stroke="#FFD700" stroke-width="2"/>
    <!-- 강렬한 표정 -->
    <path d="M230 245 Q240 250 250 245" stroke="#FFD700" stroke-width="2"/>
    <path d="M235 235 L230 230" stroke="#FFD700" stroke-width="2"/>
    <path d="M245 235 L250 230" stroke="#FFD700" stroke-width="2"/>
</svg> 