<?xml version="1.0" encoding="UTF-8"?>
<svg width="400" height="400" viewBox="0 0 400 400" fill="none" xmlns="http://www.w3.org/2000/svg">
    <!-- 대각선 막대와 손잡이 -->
    <path d="M160 160 L240 240" stroke="#A0522D" stroke-width="16" stroke-linecap="round"/>
    <path d="M240 240 L280 280" stroke="#A0522D" stroke-width="16" stroke-linecap="round"/>
    
    <!-- 상단 당고 (의사) -->
    <circle cx="160" cy="160" r="35" fill="#FFFFFF"/>
    <!-- 청진기 -->
    <path d="M145 145 Q160 155 175 145" stroke="#4169E1" stroke-width="3"/>
    <circle cx="160" cy="145" r="5" fill="#4169E1"/>
    <!-- 진지한 표정 -->
    <path d="M150 165 Q160 170 170 165" stroke="#3F1F1F" stroke-width="2"/>
    <circle cx="155" cy="155" r="3" fill="#3F1F1F"/>
    <circle cx="165" cy="155" r="3" fill="#3F1F1F"/>

    <!-- 중간 당고 (간호사) -->
    <circle cx="200" cy="200" r="35" fill="#FFB6C1"/>
    <!-- 간호사 모자 -->
    <path d="M185 185 L215 185" stroke="#FF69B4" stroke-width="4"/>
    <path d="M195 185 L195 175 L205 175 L205 185" fill="#FF69B4"/>
    <!-- 친절한 표정 -->
    <path d="M190 205 Q200 210 210 205" stroke="#3F1F1F" stroke-width="2"/>
    <circle cx="195" cy="195" r="2" fill="#3F1F1F"/>
    <circle cx="205" cy="195" r="2" fill="#3F1F1F"/>

    <!-- 하단 당고 (약사) -->
    <circle cx="240" cy="240" r="35" fill="#98FB98"/>
    <!-- 약사 마크 -->
    <path d="M230 230 L250 230" stroke="#3F1F1F" stroke-width="3"/>
    <path d="M240 220 L240 240" stroke="#3F1F1F" stroke-width="3"/>
    <!-- 똑똑한 표정 -->
    <path d="M230 245 Q240 250 250 245" stroke="#3F1F1F" stroke-width="2"/>
    <circle cx="235" cy="235" r="2" fill="#3F1F1F"/>
    <circle cx="245" cy="235" r="2" fill="#3F1F1F"/>
</svg> 