<?xml version="1.0" encoding="UTF-8"?>
<svg width="400" height="400" viewBox="0 0 400 400" fill="none" xmlns="http://www.w3.org/2000/svg">
    <!-- 대각선으로 기울어진 당고 막대 (왼쪽 위에서 오른쪽 아래로) -->
    <path d="M160 160 L240 240" 
          stroke="#A0522D" 
          stroke-width="16" 
          stroke-linecap="round"/>
    
    <!-- 막대 손잡이 -->
    <path d="M240 240 L280 280" 
          stroke="#A0522D" 
          stroke-width="16" 
          stroke-linecap="round"/>
    
    <!-- 상단 당고 (눈사람) -->
    <circle cx="160" cy="160" r="35" fill="#FFFFFF" stroke="#EEEEEE" stroke-width="2"/>
    <!-- 눈사람 모자 -->
    <path d="M145 145 H175" stroke="#333333" stroke-width="4"/>
    <path d="M155 145 V130 H165 V145" fill="#CC0000"/>
    <!-- 당근 코 -->
    <path d="M160 160 L170 165" stroke="#FFA500" stroke-width="4" stroke-linecap="round"/>
    <!-- 눈과 입 -->
    <circle cx="155" cy="155" r="3" fill="#333333"/>
    <circle cx="165" cy="155" r="3" fill="#333333"/>
    <path d="M155 165 Q160 168 165 165" stroke="#333333" stroke-width="2"/>

    <!-- 중간 당고 (산타) -->
    <circle cx="200" cy="200" r="35" fill="#CC0000"/>
    <!-- 산타 모자 장식 -->
    <path d="M185 185 Q200 175 215 185" fill="#FFFFFF"/>
    <circle cx="215" cy="175" r="8" fill="#FFFFFF"/>
    <!-- 귀여운 표정 -->
    <path d="M190 200 Q200 205 210 200" stroke="#FFFFFF" stroke-width="3" stroke-linecap="round"/>
    <circle cx="195" cy="195" r="3" fill="#FFFFFF"/>
    <circle cx="205" cy="195" r="3" fill="#FFFFFF"/>

    <!-- 하단 당고 (루돌프) -->
    <circle cx="240" cy="240" r="35" fill="#8B4513"/>
    <!-- 루돌프 뿔 -->
    <path d="M220 220 L230 210 L240 220" stroke="#4A2810" stroke-width="3"/>
    <path d="M240 220 L250 210 L260 220" stroke="#4A2810" stroke-width="3"/>
    <!-- 빨간 코 -->
    <circle cx="240" cy="240" r="8" fill="#CC0000"/>
    <!-- 귀여운 눈 -->
    <circle cx="235" cy="235" r="3" fill="#FFFFFF"/>
    <circle cx="245" cy="235" r="3" fill="#FFFFFF"/>

    <!-- 눈 효과 -->
    <circle cx="150" cy="160" r="4" fill="#FFFFFF" fill-opacity="0.8"/>
    <circle cx="250" cy="140" r="3" fill="#FFFFFF" fill-opacity="0.8"/>
    <circle cx="180" cy="220" r="5" fill="#FFFFFF" fill-opacity="0.8"/>
</svg> 