<?xml version="1.0" encoding="UTF-8"?>
<svg width="400" height="400" viewBox="0 0 400 400" fill="none" xmlns="http://www.w3.org/2000/svg">
    <!-- 대각선 막대와 손잡이 -->
    <path d="M160 160 L240 240" stroke="#A0522D" stroke-width="16" stroke-linecap="round"/>
    <path d="M240 240 L280 280" stroke="#A0522D" stroke-width="16" stroke-linecap="round"/>
    
    <!-- 상단 당고 (빨강) -->
    <circle cx="160" cy="160" r="35" fill="#FF0000"/>
    <!-- 무지개 효과 -->
    <path d="M145 150 Q160 140 175 150" stroke="#FF69B4" stroke-width="3"/>
    <path d="M145 155 Q160 145 175 155" stroke="#FFA500" stroke-width="3"/>
    <!-- 밝은 표정 -->
    <path d="M150 165 Q160 170 170 165" stroke="#FFFFFF" stroke-width="2"/>
    <circle cx="155" cy="155" r="3" fill="#FFFFFF"/>
    <circle cx="165" cy="155" r="3" fill="#FFFFFF"/>

    <!-- 중간 당고 (노랑) -->
    <circle cx="200" cy="200" r="35" fill="#FFD700"/>
    <!-- 무지개 효과 -->
    <path d="M185 190 Q200 180 215 190" stroke="#98FB98" stroke-width="3"/>
    <path d="M185 195 Q200 185 215 195" stroke="#87CEEB" stroke-width="3"/>
    <!-- 행복한 표정 -->
    <path d="M190 205 Q200 210 210 205" stroke="#3F1F1F" stroke-width="2"/>
    <circle cx="195" cy="195" r="3" fill="#3F1F1F"/>
    <circle cx="205" cy="195" r="3" fill="#3F1F1F"/>

    <!-- 하단 당고 (파랑) -->
    <circle cx="240" cy="240" r="35" fill="#4169E1"/>
    <!-- 무지개 효과 -->
    <path d="M225 235 Q240 225 255 235" stroke="#9370DB" stroke-width="3"/>
    <path d="M225 240 Q240 230 255 240" stroke="#8A2BE2" stroke-width="3"/>
    <!-- 신비로운 표정 -->
    <path d="M230 245 Q240 250 250 245" stroke="#FFFFFF" stroke-width="2"/>
    <circle cx="235" cy="235" r="2" fill="#FFFFFF"/>
    <circle cx="245" cy="235" r="2" fill="#FFFFFF"/>
</svg> 