<?xml version="1.0" encoding="UTF-8"?>
<svg width="400" height="400" viewBox="0 0 400 400" fill="none" xmlns="http://www.w3.org/2000/svg">
    <!-- 대각선 막대와 손잡이 -->
    <path d="M160 160 L240 240" stroke="#A0522D" stroke-width="16" stroke-linecap="round"/>
    <path d="M240 240 L280 280" stroke="#A0522D" stroke-width="16" stroke-linecap="round"/>
    
    <!-- 상단 당고 (해) -->
    <circle cx="160" cy="160" r="35" fill="#FFD700"/>
    <!-- 햇살 -->
    <path d="M140 140 L135 135" stroke="#FFA500" stroke-width="2"/>
    <path d="M140 180 L135 185" stroke="#FFA500" stroke-width="2"/>
    <path d="M180 140 L185 135" stroke="#FFA500" stroke-width="2"/>
    <path d="M180 180 L185 185" stroke="#FFA500" stroke-width="2"/>
    <!-- 밝은 표정 -->
    <path d="M150 165 Q160 170 170 165" stroke="#3F1F1F" stroke-width="2"/>
    <circle cx="155" cy="155" r="3" fill="#3F1F1F"/>
    <circle cx="165" cy="155" r="3" fill="#3F1F1F"/>

    <!-- 중간 당고 (비) -->
    <circle cx="200" cy="200" r="35" fill="#4682B4"/>
    <!-- 빗방울 -->
    <path d="M190 185 L185 195" stroke="#B0E0E6" stroke-width="2"/>
    <path d="M200 185 L195 195" stroke="#B0E0E6" stroke-width="2"/>
    <path d="M210 185 L205 195" stroke="#B0E0E6" stroke-width="2"/>
    <!-- 우울한 표정 -->
    <path d="M190 205 Q200 200 210 205" stroke="#FFF" stroke-width="2"/>
    <circle cx="195" cy="195" r="2" fill="#FFF"/>
    <circle cx="205" cy="195" r="2" fill="#FFF"/>

    <!-- 하단 당고 (눈) -->
    <circle cx="240" cy="240" r="35" fill="#F0F8FF"/>
    <!-- 눈결정 -->
    <path d="M230 230 L250 250" stroke="#FFF" stroke-width="2"/>
    <path d="M250 230 L230 250" stroke="#FFF" stroke-width="2"/>
    <circle cx="240" cy="240" r="5" fill="#FFF"/>
    <!-- 차가운 표정 -->
    <path d="M230 245 Q240 250 250 245" stroke="#3F1F1F" stroke-width="2"/>
    <path d="M235 235 L245 235" stroke="#3F1F1F" stroke-width="2"/>
</svg> 