<?xml version="1.0" encoding="UTF-8"?>
<svg width="400" height="400" viewBox="0 0 400 400" fill="none" xmlns="http://www.w3.org/2000/svg">
    <!-- 대각선 막대와 손잡이 -->
    <path d="M160 160 L240 240" stroke="#A0522D" stroke-width="16" stroke-linecap="round"/>
    <path d="M240 240 L280 280" stroke="#A0522D" stroke-width="16" stroke-linecap="round"/>
    
    <!-- 상단 당고 (마스크) -->
    <circle cx="160" cy="160" r="35" fill="#FFD700"/>
    <!-- 깃털 장식 -->
    <path d="M140 140 Q150 130 160 140" stroke="#FF69B4" stroke-width="2"/>
    <path d="M160 140 Q170 130 180 140" stroke="#4169E1" stroke-width="2"/>
    <!-- 반짝이는 장식 -->
    <circle cx="150" cy="150" r="3" fill="#FFFFFF"/>
    <circle cx="170" cy="150" r="3" fill="#FFFFFF"/>
    <!-- 신비로운 표정 -->
    <path d="M150 165 Q160 170 170 165" stroke="#3F1F1F" stroke-width="2"/>
    <path d="M155 155 L152 152" stroke="#3F1F1F" stroke-width="2"/>
    <path d="M165 155 L168 152" stroke="#3F1F1F" stroke-width="2"/>

    <!-- 중간 당고 (폭죽) -->
    <circle cx="200" cy="200" r="35" fill="#FF4500"/>
    <!-- 폭죽 효과 -->
    <path d="M185 185 L195 195" stroke="#FFD700" stroke-width="2"/>
    <path d="M215 185 L205 195" stroke="#FFD700" stroke-width="2"/>
    <path d="M200 180 L200 190" stroke="#FFD700" stroke-width="2"/>
    <!-- 즐거운 표정 -->
    <path d="M190 205 Q200 210 210 205" stroke="#FFFFFF" stroke-width="2"/>
    <circle cx="195" cy="195" r="3" fill="#FFFFFF"/>
    <circle cx="205" cy="195" r="3" fill="#FFFFFF"/>

    <!-- 하단 당고 (리본) -->
    <circle cx="240" cy="240" r="35" fill="#E6E6FA"/>
    <!-- 리본 장식 -->
    <path d="M225 230 Q240 220 255 230" stroke="#9370DB" stroke-width="3"/>
    <path d="M225 235 Q240 225 255 235" stroke="#9370DB" stroke-width="3"/>
    <!-- 화려한 표정 -->
    <path d="M230 245 Q240 250 250 245" stroke="#3F1F1F" stroke-width="2"/>
    <circle cx="235" cy="235" r="2" fill="#3F1F1F"/>
    <circle cx="245" cy="235" r="2" fill="#3F1F1F"/>
</svg> 