<?xml version="1.0" encoding="UTF-8"?>
<svg width="400" height="400" viewBox="0 0 400 400" fill="none" xmlns="http://www.w3.org/2000/svg">
    <!-- 대각선 막대와 손잡이 -->
    <path d="M160 160 L240 240" stroke="#A0522D" stroke-width="16" stroke-linecap="round"/>
    <path d="M240 240 L280 280" stroke="#A0522D" stroke-width="16" stroke-linecap="round"/>
    
    <!-- 상단 당고 (장미) -->
    <circle cx="160" cy="160" r="35" fill="#FF69B4"/>
    <!-- 장미 꽃잎 -->
    <path d="M150 150 Q160 140 170 150 Q180 160 170 170 Q160 180 150 170 Q140 160 150 150" 
          fill="#FF1493" fill-opacity="0.5"/>
    <!-- 수줍은 표정 -->
    <path d="M150 165 Q160 170 170 165" stroke="#3F1F1F" stroke-width="2"/>
    <circle cx="155" cy="155" r="2" fill="#3F1F1F"/>
    <circle cx="165" cy="155" r="2" fill="#3F1F1F"/>

    <!-- 중간 당고 (해바라기) -->
    <circle cx="200" cy="200" r="35" fill="#FFD700"/>
    <!-- 해바라기 씨앗 패턴 -->
    <circle cx="200" cy="200" r="12" fill="#8B4513"/>
    <path d="M190 190 L210 210 M210 190 L190 210" stroke="#8B4513" stroke-width="2"/>
    <!-- 밝은 표정 -->
    <path d="M190 205 Q200 210 210 205" stroke="#3F1F1F" stroke-width="2"/>
    <circle cx="195" cy="195" r="3" fill="#3F1F1F"/>
    <circle cx="205" cy="195" r="3" fill="#3F1F1F"/>

    <!-- 하단 당고 (라벤더) -->
    <circle cx="240" cy="240" r="35" fill="#E6E6FA"/>
    <!-- 라벤더 무늬 -->
    <path d="M230 230 L250 230" stroke="#9370DB" stroke-width="2"/>
    <path d="M235 225 L245 225" stroke="#9370DB" stroke-width="2"/>
    <path d="M235 235 L245 235" stroke="#9370DB" stroke-width="2"/>
    <!-- 평화로운 표정 -->
    <path d="M230 245 Q240 250 250 245" stroke="#3F1F1F" stroke-width="2"/>
    <path d="M235 235 Q235 233 238 233" stroke="#3F1F1F" stroke-width="2"/>
    <path d="M245 235 Q245 233 242 233" stroke="#3F1F1F" stroke-width="2"/>
</svg> 