<?xml version="1.0" encoding="UTF-8"?>
<svg width="400" height="400" viewBox="0 0 400 400" fill="none" xmlns="http://www.w3.org/2000/svg">
    <!-- 대각선 막대와 손잡이 -->
    <path d="M160 160 L240 240" stroke="#A0522D" stroke-width="16" stroke-linecap="round"/>
    <path d="M240 240 L280 280" stroke="#A0522D" stroke-width="16" stroke-linecap="round"/>
    
    <!-- 상단 당고 (단풍) -->
    <circle cx="160" cy="160" r="35" fill="#FF6B35"/>
    <!-- 단풍잎 무늬 -->
    <path d="M150 150 L170 150 M160 140 L160 160" stroke="#CC4E2A" stroke-width="2"/>
    <path d="M145 145 Q160 160 175 145" stroke="#CC4E2A" stroke-width="2"/>
    <!-- 따뜻한 표정 -->
    <path d="M150 165 Q160 170 170 165" stroke="#3F1F1F" stroke-width="2"/>
    <path d="M155 155 Q155 153 158 153" stroke="#3F1F1F" stroke-width="2"/>
    <path d="M165 155 Q165 153 162 153" stroke="#3F1F1F" stroke-width="2"/>

    <!-- 중간 당고 (밤) -->
    <circle cx="200" cy="200" r="35" fill="#8B4513"/>
    <!-- 밤 무늬 -->
    <path d="M190 190 L210 190" stroke="#5C2E0E" stroke-width="3"/>
    <path d="M185 195 L215 195" stroke="#5C2E0E" stroke-width="2"/>
    <!-- 행복한 표정 -->
    <path d="M190 200 Q200 205 210 200" stroke="#FFE4B5" stroke-width="2"/>
    <circle cx="195" cy="195" r="3" fill="#FFE4B5"/>
    <circle cx="205" cy="195" r="3" fill="#FFE4B5"/>

    <!-- 하단 당고 (호박) -->
    <circle cx="240" cy="240" r="35" fill="#FFA500"/>
    <!-- 호박 무늬 -->
    <path d="M225 225 L255 255" stroke="#FF8C00" stroke-width="2"/>
    <path d="M255 225 L225 255" stroke="#FF8C00" stroke-width="2"/>
    <!-- 할로윈 표정 -->
    <path d="M230 245 Q240 250 250 245" stroke="#3F1F1F" stroke-width="2"/>
    <path d="M235 235 L245 235" stroke="#3F1F1F" stroke-width="3"/>
</svg> 