<?xml version="1.0" encoding="UTF-8"?>
<svg width="400" height="400" viewBox="0 0 400 400" fill="none" xmlns="http://www.w3.org/2000/svg">
    <!-- 대각선 막대와 손잡이 -->
    <path d="M160 160 L240 240" stroke="#A0522D" stroke-width="16" stroke-linecap="round"/>
    <path d="M240 240 L280 280" stroke="#A0522D" stroke-width="16" stroke-linecap="round"/>
    
    <!-- 상단 당고 (물고기) -->
    <circle cx="160" cy="160" r="35" fill="#4FB6E6"/>
    <!-- 물고기 비늘 -->
    <path d="M150 150 Q160 145 170 150" stroke="#3C8EB0" stroke-width="2"/>
    <path d="M145 160 Q160 155 175 160" stroke="#3C8EB0" stroke-width="2"/>
    <!-- 귀여운 표정 -->
    <path d="M150 165 Q160 170 170 165" stroke="#3F1F1F" stroke-width="2"/>
    <circle cx="155" cy="155" r="3" fill="#3F1F1F"/>
    <circle cx="165" cy="155" r="3" fill="#3F1F1F"/>

    <!-- 중간 당고 (조개) -->
    <circle cx="200" cy="200" r="35" fill="#FFE4E1"/>
    <!-- 조개 무늬 -->
    <path d="M185 190 Q200 180 215 190" stroke="#FFB6C1" stroke-width="3"/>
    <path d="M185 200 Q200 190 215 200" stroke="#FFB6C1" stroke-width="2"/>
    <!-- 행복한 표정 -->
    <path d="M190 205 Q200 210 210 205" stroke="#3F1F1F" stroke-width="2"/>
    <circle cx="195" cy="195" r="2" fill="#3F1F1F"/>
    <circle cx="205" cy="195" r="2" fill="#3F1F1F"/>

    <!-- 하단 당고 (불가사리) -->
    <circle cx="240" cy="240" r="35" fill="#FF9966"/>
    <!-- 불가사리 무늬 -->
    <path d="M225 225 L255 255" stroke="#FF7F50" stroke-width="2"/>
    <path d="M255 225 L225 255" stroke="#FF7F50" stroke-width="2"/>
    <!-- 즐거운 표정 -->
    <path d="M230 245 Q240 250 250 245" stroke="#3F1F1F" stroke-width="2"/>
    <circle cx="235" cy="235" r="3" fill="#3F1F1F"/>
    <circle cx="245" cy="235" r="3" fill="#3F1F1F"/>
</svg> 