<?xml version="1.0" encoding="UTF-8"?>
<svg width="400" height="400" viewBox="0 0 400 400" fill="none" xmlns="http://www.w3.org/2000/svg">
    <!-- 대각선 막대와 손잡이 -->
    <path d="M160 160 L240 240" stroke="#A0522D" stroke-width="16" stroke-linecap="round"/>
    <path d="M240 240 L280 280" stroke="#A0522D" stroke-width="16" stroke-linecap="round"/>
    
    <!-- 상단 당고 (펭귄) -->
    <circle cx="160" cy="160" r="35" fill="#2F4F4F"/>
    <!-- 펭귄 배 -->
    <path d="M150 155 Q160 175 170 155" fill="#FFFFFF"/>
    <!-- 부리 -->
    <path d="M155 155 L165 155" stroke="#FFA500" stroke-width="4"/>
    <!-- 귀여운 표정 -->
    <circle cx="155" cy="150" r="3" fill="#3F1F1F"/>
    <circle cx="165" cy="150" r="3" fill="#3F1F1F"/>

    <!-- 중간 당고 (북극곰) -->
    <circle cx="200" cy="200" r="35" fill="#FFFFFF"/>
    <!-- 곰 귀 -->
    <circle cx="185" cy="185" r="8" fill="#F8F8FF"/>
    <circle cx="215" cy="185" r="8" fill="#F8F8FF"/>
    <!-- 코 -->
    <circle cx="200" cy="200" r="5" fill="#3F1F1F"/>
    <!-- 귀여운 표정 -->
    <path d="M190 205 Q200 210 210 205" stroke="#3F1F1F" stroke-width="2"/>

    <!-- 하단 당고 (바다표범) -->
    <circle cx="240" cy="240" r="35" fill="#A9A9A9"/>
    <!-- 수염 -->
    <path d="M225 240 L235 240" stroke="#3F1F1F" stroke-width="2"/>
    <path d="M245 240 L255 240" stroke="#3F1F1F" stroke-width="2"/>
    <path d="M225 245 L235 245" stroke="#3F1F1F" stroke-width="2"/>
    <path d="M245 245 L255 245" stroke="#3F1F1F" stroke-width="2"/>
    <!-- 귀여운 표정 -->
    <circle cx="235" cy="235" r="3" fill="#3F1F1F"/>
    <circle cx="245" cy="235" r="3" fill="#3F1F1F"/>
    <path d="M235 245 Q240 248 245 245" stroke="#3F1F1F" stroke-width="2"/>
</svg> 