<?xml version="1.0" encoding="UTF-8"?>
<svg width="400" height="400" viewBox="0 0 400 400" fill="none" xmlns="http://www.w3.org/2000/svg">
    <!-- 대각선 막대와 손잡이 -->
    <path d="M160 160 L240 240" stroke="#A0522D" stroke-width="16" stroke-linecap="round"/>
    <path d="M240 240 L280 280" stroke="#A0522D" stroke-width="16" stroke-linecap="round"/>
    
    <!-- 상단 당고 (기사) -->
    <circle cx="160" cy="160" r="35" fill="#C0C0C0"/>
    <!-- 투구 장식 -->
    <path d="M145 145 L175 145" stroke="#808080" stroke-width="4"/>
    <path d="M150 145 L150 135" stroke="#808080" stroke-width="3"/>
    <path d="M170 145 L170 135" stroke="#808080" stroke-width="3"/>
    <!-- 용감한 표정 -->
    <path d="M150 165 Q160 170 170 165" stroke="#333333" stroke-width="2"/>
    <path d="M155 155 L150 150" stroke="#333333" stroke-width="2"/>
    <path d="M165 155 L170 150" stroke="#333333" stroke-width="2"/>

    <!-- 중간 당고 (마법사) -->
    <circle cx="200" cy="200" r="35" fill="#9370DB"/>
    <!-- 마법 효과 -->
    <path d="M185 190 L195 180" stroke="#E6E6FA" stroke-width="2"/>
    <path d="M205 190 L215 180" stroke="#E6E6FA" stroke-width="2"/>
    <circle cx="190" cy="185" r="3" fill="#E6E6FA"/>
    <!-- 신비로운 표정 -->
    <path d="M190 205 Q200 210 210 205" stroke="#FFFFFF" stroke-width="2"/>
    <circle cx="195" cy="195" r="2" fill="#FFFFFF"/>
    <circle cx="205" cy="195" r="2" fill="#FFFFFF"/>

    <!-- 하단 당고 (드래곤) -->
    <circle cx="240" cy="240" r="35" fill="#CD5C5C"/>
    <!-- 비늘 무늬 -->
    <path d="M225 235 Q240 225 255 235" stroke="#8B0000" stroke-width="2"/>
    <path d="M225 245 Q240 235 255 245" stroke="#8B0000" stroke-width="2"/>
    <!-- 사나운 표정 -->
    <path d="M230 245 Q240 250 250 245" stroke="#FFD700" stroke-width="2"/>
    <path d="M235 235 L230 230" stroke="#FFD700" stroke-width="2"/>
    <path d="M245 235 L250 230" stroke="#FFD700" stroke-width="2"/>
</svg> 