<?xml version="1.0" encoding="UTF-8"?>
<svg width="400" height="400" viewBox="0 0 400 400" fill="none" xmlns="http://www.w3.org/2000/svg">
    <!-- 대각선 막대와 손잡이 -->
    <path d="M160 160 L240 240" stroke="#A0522D" stroke-width="16" stroke-linecap="round"/>
    <path d="M240 240 L280 280" stroke="#A0522D" stroke-width="16" stroke-linecap="round"/>
    
    <!-- 상단 당고 (우주인) -->
    <circle cx="160" cy="160" r="35" fill="#FFFFFF"/>
    <!-- 헬멧 효과 -->
    <path d="M140 155 Q160 145 180 155" stroke="#C0C0C0" stroke-width="3"/>
    <path d="M140 165 Q160 155 180 165" stroke="#C0C0C0" stroke-width="3"/>
    <!-- 반사광 -->
    <circle cx="150" cy="150" r="4" fill="#ADD8E6"/>
    <!-- 용감한 표정 -->
    <path d="M150 165 Q160 170 170 165" stroke="#3F1F1F" stroke-width="2"/>
    <circle cx="155" cy="155" r="3" fill="#3F1F1F"/>
    <circle cx="165" cy="155" r="3" fill="#3F1F1F"/>

    <!-- 중간 당고 (별) -->
    <circle cx="200" cy="200" r="35" fill="#4169E1"/>
    <!-- 별빛 효과 -->
    <circle cx="190" cy="190" r="2" fill="#FFD700"/>
    <circle cx="210" cy="190" r="2" fill="#FFD700"/>
    <circle cx="200" cy="210" r="2" fill="#FFD700"/>
    <!-- 반짝이는 표정 -->
    <path d="M190 205 Q200 210 210 205" stroke="#FFFFFF" stroke-width="2"/>
    <circle cx="195" cy="195" r="3" fill="#FFFFFF"/>
    <circle cx="205" cy="195" r="3" fill="#FFFFFF"/>

    <!-- 하단 당고 (UFO) -->
    <circle cx="240" cy="240" r="35" fill="#9370DB"/>
    <!-- UFO 빔 -->
    <path d="M225 230 L255 230" stroke="#7FFF00" stroke-width="2"/>
    <path d="M230 235 L250 235" stroke="#7FFF00" stroke-width="2"/>
    <!-- 신비로운 표정 -->
    <path d="M230 245 Q240 250 250 245" stroke="#FFFFFF" stroke-width="2"/>
    <circle cx="235" cy="235" r="3" fill="#FFFFFF"/>
    <circle cx="245" cy="235" r="3" fill="#FFFFFF"/>
</svg> 