<?xml version="1.0" encoding="UTF-8"?>
<svg width="400" height="400" viewBox="0 0 400 400" fill="none" xmlns="http://www.w3.org/2000/svg">
    <!-- 대각선 막대와 손잡이 -->
    <path d="M160 160 L240 240" stroke="#A0522D" stroke-width="16" stroke-linecap="round"/>
    <path d="M240 240 L280 280" stroke="#A0522D" stroke-width="16" stroke-linecap="round"/>
    
    <!-- 상단 당고 (기타) -->
    <circle cx="160" cy="160" r="35" fill="#DEB887"/>
    <!-- 기타 줄 -->
    <path d="M145 155 L175 155" stroke="#3F1F1F" stroke-width="1"/>
    <path d="M145 160 L175 160" stroke="#3F1F1F" stroke-width="1"/>
    <path d="M145 165 L175 165" stroke="#3F1F1F" stroke-width="1"/>
    <!-- 기타 브릿지 -->
    <path d="M145 155 L145 165" stroke="#8B4513" stroke-width="3"/>
    <path d="M175 155 L175 165" stroke="#8B4513" stroke-width="3"/>
    <!-- 신나는 표정 -->
    <path d="M150 170 Q160 175 170 170" stroke="#3F1F1F" stroke-width="2"/>
    <path d="M155 155 L152 152" stroke="#3F1F1F" stroke-width="2"/>
    <path d="M165 155 L168 152" stroke="#3F1F1F" stroke-width="2"/>

    <!-- 중간 당고 (피아노) -->
    <circle cx="200" cy="200" r="35" fill="#FFFFFF"/>
    <!-- 피아노 건반 -->
    <path d="M185 195 L215 195" stroke="#000000" stroke-width="2"/>
    <path d="M190 195 L190 205" stroke="#000000" stroke-width="4"/>
    <path d="M200 195 L200 205" stroke="#000000" stroke-width="4"/>
    <path d="M210 195 L210 205" stroke="#000000" stroke-width="4"/>
    <!-- 우아한 표정 -->
    <path d="M190 210 Q200 215 210 210" stroke="#3F1F1F" stroke-width="2"/>
    <circle cx="195" cy="190" r="2" fill="#3F1F1F"/>
    <circle cx="205" cy="190" r="2" fill="#3F1F1F"/>

    <!-- 하단 당고 (드럼) -->
    <circle cx="240" cy="240" r="35" fill="#CD5C5C"/>
    <!-- 드럼 스틱 -->
    <path d="M225 230 L235 240" stroke="#8B4513" stroke-width="2"/>
    <path d="M245 230 L255 240" stroke="#8B4513" stroke-width="2"/>
    <!-- 리듬감 있는 표정 -->
    <path d="M230 245 Q240 250 250 245" stroke="#FFFFFF" stroke-width="2"/>
    <circle cx="235" cy="235" r="3" fill="#FFFFFF"/>
    <circle cx="245" cy="235" r="3" fill="#FFFFFF"/>
</svg> 