<?xml version="1.0" encoding="UTF-8"?>
<svg width="400" height="400" viewBox="0 0 400 400" fill="none" xmlns="http://www.w3.org/2000/svg">
    <!-- 대각선 막대와 손잡이 -->
    <path d="M160 160 L240 240" stroke="#A0522D" stroke-width="16" stroke-linecap="round"/>
    <path d="M240 240 L280 280" stroke="#A0522D" stroke-width="16" stroke-linecap="round"/>
    
    <!-- 상단 당고 (패티) -->
    <circle cx="160" cy="160" r="35" fill="#8B4513"/>
    <!-- 구운 무늬 -->
    <path d="M145 155 L175 155" stroke="#654321" stroke-width="3"/>
    <path d="M145 165 L175 165" stroke="#654321" stroke-width="3"/>
    <!-- 맛있는 표정 -->
    <path d="M150 165 Q160 170 170 165" stroke="#FFE4B5" stroke-width="2"/>
    <circle cx="155" cy="155" r="3" fill="#FFE4B5"/>
    <circle cx="165" cy="155" r="3" fill="#FFE4B5"/>

    <!-- 중간 당고 (치즈) -->
    <circle cx="200" cy="200" r="35" fill="#FFD700"/>
    <!-- 치즈 슬라이스 -->
    <path d="M185 195 L215 195" stroke="#FFA500" stroke-width="4"/>
    <!-- 녹은 효과 -->
    <path d="M185 205 Q200 215 215 205" stroke="#FFA500" stroke-width="3"/>
    <!-- 부드러운 표정 -->
    <path d="M190 205 Q200 210 210 205" stroke="#3F1F1F" stroke-width="2"/>
    <circle cx="195" cy="195" r="2" fill="#3F1F1F"/>
    <circle cx="205" cy="195" r="2" fill="#3F1F1F"/>

    <!-- 하단 당고 (토마토) -->
    <circle cx="240" cy="240" r="35" fill="#FF6347"/>
    <!-- 토마토 씨 -->
    <circle cx="235" cy="235" r="2" fill="#8B0000"/>
    <circle cx="245" cy="235" r="2" fill="#8B0000"/>
    <circle cx="240" cy="245" r="2" fill="#8B0000"/>
    <!-- 신선한 표정 -->
    <path d="M230 245 Q240 250 250 245" stroke="#3F1F1F" stroke-width="2"/>
</svg> 