<?xml version="1.0" encoding="UTF-8"?>
<svg width="400" height="400" viewBox="0 0 400 400" fill="none" xmlns="http://www.w3.org/2000/svg">
    <!-- 대각선 막대와 손잡이 -->
    <path d="M160 160 L240 240" stroke="#A0522D" stroke-width="16" stroke-linecap="round"/>
    <path d="M240 240 L280 280" stroke="#A0522D" stroke-width="16" stroke-linecap="round"/>
    
    <!-- 상단 당고 (UFO) -->
    <circle cx="160" cy="160" r="35" fill="#4169E1"/>
    <!-- UFO 창문 -->
    <circle cx="160" cy="160" r="10" fill="#87CEEB"/>
    <circle cx="150" cy="160" r="5" fill="#00FFFF"/>
    <circle cx="170" cy="160" r="5" fill="#00FFFF"/>
    <!-- 외계인 표정 -->
    <path d="M155 165 Q160 170 165 165" stroke="#00FF00" stroke-width="2"/>
    <circle cx="155" cy="155" r="3" fill="#00FF00"/>
    <circle cx="165" cy="155" r="3" fill="#00FF00"/>

    <!-- 중간 당고 (블랙홀) -->
    <circle cx="200" cy="200" r="35" fill="#000000"/>
    <!-- 소용돌이 -->
    <path d="M185 185 Q200 200 215 185" stroke="#4B0082" stroke-width="2"/>
    <path d="M185 215 Q200 200 215 215" stroke="#4B0082" stroke-width="2"/>
    <!-- 신비로운 표정 -->
    <path d="M190 205 Q200 210 210 205" stroke="#9370DB" stroke-width="2"/>
    <circle cx="195" cy="195" r="2" fill="#9370DB"/>
    <circle cx="205" cy="195" r="2" fill="#9370DB"/>

    <!-- 하단 당고 (성운) -->
    <circle cx="240" cy="240" r="35" fill="#FF69B4"/>
    <!-- 별무리 -->
    <circle cx="230" cy="230" r="2" fill="#FFD700"/>
    <circle cx="250" cy="230" r="2" fill="#FFD700"/>
    <circle cx="240" cy="250" r="2" fill="#FFD700"/>
    <circle cx="235" cy="240" r="1" fill="#FFD700"/>
    <circle cx="245" cy="240" r="1" fill="#FFD700"/>
    <!-- 몽환적인 표정 -->
    <path d="M230 245 Q240 250 250 245" stroke="#DDA0DD" stroke-width="2"/>
    <path d="M235 235 L230 230" stroke="#DDA0DD" stroke-width="2"/>
    <path d="M245 235 L250 230" stroke="#DDA0DD" stroke-width="2"/>
</svg> 