<?xml version="1.0" standalone="no"?>
<!DOCTYPE svg PUBLIC "-//W3C//DTD SVG 20010904//EN"
 "http://www.w3.org/TR/2001/REC-SVG-20010904/DTD/svg10.dtd">
<svg version="1.0" xmlns="http://www.w3.org/2000/svg"
 width="2019.000000pt" height="2500.000000pt" viewBox="0 0 2019.000000 2500.000000"
 preserveAspectRatio="xMidYMid meet">

<g transform="translate(0.000000,2500.000000) scale(0.100000,-0.100000)"
fill="#000000" stroke="none">
<path d="M5785 22300 c-937 -83 -1744 -529 -2302 -1275 -334 -445 -540 -966
-609 -1539 -20 -159 -22 -526 -5 -676 70 -614 285 -1153 645 -1620 570 -739
1426 -1187 2362 -1236 l131 -7 6 -201 c14 -471 108 -874 301 -1290 163 -352
440 -725 731 -989 457 -414 1013 -686 1605 -787 110 -19 247 -33 431 -46 l86
-6 7 -121 c36 -647 284 -1290 697 -1807 110 -138 346 -374 484 -484 822 -655
1881 -864 2893 -572 813 235 1527 824 1919 1582 189 366 294 712 345 1139 18
150 14 544 -6 699 -98 755 -411 1387 -942 1907 -522 509 -1187 817 -1918 888
-60 6 -146 11 -191 11 l-82 0 -7 113 c-30 499 -163 956 -400 1380 -473 844
-1300 1427 -2251 1586 -151 25 -314 41 -420 41 l-82 0 -6 228 c-11 458 -105
855 -300 1274 -215 460 -595 916 -1017 1218 -438 314 -930 506 -1474 575 -146
19 -493 27 -631 15z m515 -50 c1103 -100 2054 -749 2539 -1733 214 -433 317
-862 323 -1342 2 -88 -1 -166 -5 -172 -6 -9 -37 -13 -100 -13 -51 0 -153 -7
-227 -16 -1274 -146 -2342 -1048 -2696 -2277 -45 -157 -90 -383 -104 -522 -6
-60 -13 -125 -16 -144 l-5 -34 -142 6 c-676 31 -1352 301 -1872 750 -864 743
-1255 1885 -1030 3002 209 1038 943 1908 1933 2294 272 106 622 185 897 204
118 8 399 6 505 -3z m3100 -3311 c1011 -72 1907 -606 2445 -1459 80 -127 230
-429 279 -560 112 -305 180 -628 193 -916 l6 -131 -149 -6 c-827 -36 -1651
-434 -2205 -1065 -458 -522 -725 -1139 -789 -1827 -5 -60 -10 -152 -10 -204
l0 -94 -137 7 c-995 50 -1912 574 -2459 1406 -254 387 -413 805 -486 1275 -25
168 -35 542 -19 722 37 403 142 774 319 1128 316 634 856 1155 1501 1449 475
217 997 312 1511 275z m3325 -3134 c868 -111 1615 -545 2137 -1242 338 -452
543 -980 604 -1553 21 -204 15 -566 -15 -755 -103 -675 -385 -1254 -843 -1731
-498 -518 -1133 -838 -1868 -941 -191 -26 -625 -24 -817 5 -656 99 -1220 364
-1697 800 -480 439 -820 1041 -949 1682 -62 308 -79 690 -43 985 108 886 559
1653 1281 2180 470 343 1034 545 1645 589 107 8 447 -4 565 -19z"/>
<path d="M4865 20478 c-233 -24 -439 -204 -500 -438 -24 -92 -17 -262 15 -345
89 -233 314 -394 553 -395 148 0 313 69 421 176 182 182 225 449 111 682 -110
221 -343 346 -600 320z m199 -59 c189 -37 369 -225 405 -423 75 -412 -324
-754 -713 -612 -167 60 -297 201 -342 371 -19 69 -18 219 2 286 15 51 60 149
68 149 2 0 0 -17 -5 -37 -22 -95 34 -205 130 -255 98 -51 197 -35 277 46 81
80 97 177 47 277 -49 96 -167 155 -258 130 -48 -13 -44 -6 13 22 122 62 229
75 376 46z m-269 -128 c78 -36 115 -95 115 -182 0 -118 -84 -195 -205 -187
-70 4 -121 34 -155 91 -97 159 77 356 245 278z"/>
<path d="M6970 20479 c-244 -21 -458 -211 -516 -457 -21 -86 -14 -222 15 -314
54 -170 205 -320 381 -378 321 -105 678 96 756 426 34 144 5 324 -70 444 -123
195 -335 300 -566 279z m210 -66 c176 -48 327 -202 375 -383 8 -30 15 -91 15
-135 0 -153 -51 -277 -160 -385 -78 -77 -141 -113 -246 -140 -188 -48 -375 3
-513 140 -168 166 -209 417 -102 628 l27 54 -4 -61 c-6 -82 16 -137 77 -194
120 -112 304 -80 377 65 51 100 29 215 -54 290 -49 44 -136 73 -189 63 -54
-10 -32 10 45 40 111 43 237 50 352 18z m-307 -115 c114 -34 170 -182 108
-285 -64 -103 -212 -125 -305 -44 -50 44 -72 148 -46 216 16 42 58 84 105 106
47 22 83 24 138 7z"/>
<path d="M6364 19212 c-7 -4 -46 -77 -87 -163 -123 -252 -164 -284 -354 -277
-96 3 -114 7 -161 33 -29 16 -68 45 -86 66 -44 48 -135 202 -133 224 3 25 -28
43 -50 29 -10 -6 -18 -18 -18 -27 0 -9 -9 -23 -19 -30 -17 -13 -19 -23 -13
-113 15 -234 77 -484 147 -592 43 -66 144 -164 201 -192 64 -33 158 -53 221
-47 108 10 219 94 324 247 127 184 156 283 158 525 1 170 1 170 -29 230 -16
32 -36 61 -42 63 -25 7 -25 -29 -2 -81 22 -48 24 -64 23 -212 0 -188 -15 -260
-74 -374 -92 -176 -224 -315 -324 -342 -129 -35 -307 52 -407 198 -64 92 -115
281 -140 516 -11 101 -11 120 1 127 11 7 23 -8 51 -59 69 -124 158 -204 258
-231 25 -6 85 -12 134 -11 192 1 253 50 378 306 67 139 78 170 67 181 -7 7
-18 10 -24 6z"/>
<path d="M8131 16669 c-71 -14 -142 -39 -201 -72 -115 -64 -136 -83 -205 -192
-61 -96 -67 -108 -56 -131 9 -20 17 -25 38 -22 22 2 38 19 79 83 28 44 62 91
76 105 44 43 173 110 254 130 170 44 433 10 607 -77 47 -23 50 -24 68 -7 33
30 21 66 -31 91 -67 33 -191 71 -287 88 -92 16 -270 18 -342 4z"/>
<path d="M9845 16613 c-16 -2 -106 -22 -198 -45 -187 -45 -225 -65 -214 -111
12 -47 113 -63 131 -21 8 18 31 27 115 48 149 36 221 46 337 46 132 0 243 -20
381 -69 109 -39 112 -40 134 -22 16 13 20 24 16 43 -6 22 -22 31 -113 63 -162
57 -266 75 -424 73 -74 0 -148 -3 -165 -5z"/>
<path d="M9462 15918 c-5 -7 -41 -78 -80 -158 -116 -242 -175 -287 -362 -278
-108 5 -179 37 -242 107 -50 56 -133 197 -131 223 2 25 -34 43 -53 27 -9 -7
-13 -20 -11 -30 3 -11 -2 -19 -14 -22 -16 -4 -19 -15 -19 -79 0 -98 35 -327
65 -433 39 -132 81 -211 155 -286 36 -36 85 -78 110 -92 105 -61 251 -72 340
-27 129 66 307 309 355 485 11 40 18 117 22 230 5 160 3 174 -19 234 -22 62
-49 94 -65 78 -4 -5 4 -38 17 -75 23 -61 25 -80 23 -217 -2 -219 -30 -312
-146 -485 -107 -158 -210 -234 -318 -233 -112 1 -201 46 -297 147 -105 111
-165 303 -198 639 -6 61 -5 67 12 67 13 0 32 -23 59 -71 103 -183 253 -260
453 -230 95 14 150 45 202 115 47 63 183 343 176 362 -7 17 -20 18 -34 2z"/>
<path d="M11280 13835 c-217 -49 -401 -230 -450 -443 -17 -74 -15 -206 5 -281
79 -307 396 -498 703 -426 207 49 384 222 437 430 19 76 19 214 0 290 -51 196
-212 363 -405 419 -80 24 -212 29 -290 11z m231 -45 c30 -5 90 -28 134 -49
332 -163 402 -603 139 -868 -42 -41 -85 -73 -135 -97 -92 -44 -143 -55 -243
-56 -152 0 -278 52 -386 160 -160 160 -203 405 -106 604 l34 71 -5 -51 c-24
-227 255 -357 415 -193 48 50 66 95 66 169 0 145 -118 252 -264 238 -44 -4
-48 -3 -32 8 24 17 115 52 161 63 51 12 159 13 222 1z m-219 -149 c116 -74
116 -245 0 -326 -37 -26 -53 -30 -107 -30 -54 0 -70 4 -107 30 -116 81 -116
252 0 326 38 24 57 29 107 29 50 0 69 -5 107 -29z"/>
<path d="M13393 13839 c-272 -45 -483 -299 -483 -579 1 -311 240 -567 551
-587 267 -18 508 145 595 402 34 101 38 246 10 340 -50 165 -155 293 -301 366
-124 61 -241 80 -372 58z m232 -54 c143 -37 274 -135 343 -257 123 -216 79
-500 -102 -666 -161 -147 -396 -184 -596 -95 -114 51 -225 168 -277 293 -25
59 -27 76 -28 195 0 109 3 139 22 187 11 31 28 66 35 77 13 19 15 16 15 -37 0
-139 105 -245 243 -245 97 0 176 50 216 138 80 171 -49 357 -237 343 l-61 -4
56 28 c111 56 255 73 371 43z m-257 -134 c67 -34 102 -93 102 -171 0 -65 -18
-108 -63 -147 -66 -57 -136 -66 -215 -27 -84 42 -126 133 -103 222 14 50 63
109 106 128 45 20 129 17 173 -5z"/>
<path d="M12362 12753 c-5 -10 -12 -44 -16 -76 -13 -117 -96 -304 -165 -371
-44 -43 -105 -58 -147 -36 -53 29 -124 187 -139 311 -5 44 -4 58 9 68 19 16
21 52 4 69 -18 18 -63 14 -83 -8 -58 -64 7 -352 105 -463 49 -55 93 -77 156
-77 98 0 193 79 259 213 27 57 35 67 41 52 77 -224 189 -300 335 -228 66 33
181 147 228 227 97 163 93 296 -9 296 -20 0 -43 -6 -50 -14 -18 -22 -8 -60 18
-71 19 -8 22 -15 18 -40 -18 -90 -128 -241 -223 -304 -85 -57 -140 -36 -192
72 -42 85 -61 164 -68 277 -3 52 -10 101 -16 108 -14 18 -55 15 -65 -5z"/>
</g>
</svg>
