<?xml version="1.0" encoding="UTF-8"?>
<svg width="400" height="400" viewBox="0 0 400 400" fill="none" xmlns="http://www.w3.org/2000/svg">
    <!-- 대각선 막대와 손잡이 -->
    <path d="M160 160 L240 240" stroke="#A0522D" stroke-width="16" stroke-linecap="round"/>
    <path d="M240 240 L280 280" stroke="#A0522D" stroke-width="16" stroke-linecap="round"/>
    
    <!-- 상단 당고 (쿠키) -->
    <circle cx="160" cy="160" r="35" fill="#DEB887"/>
    <!-- 쿠키 칩 -->
    <circle cx="150" cy="150" r="4" fill="#8B4513"/>
    <circle cx="170" cy="150" r="4" fill="#8B4513"/>
    <circle cx="160" cy="170" r="4" fill="#8B4513"/>
    <!-- 달콤한 표정 -->
    <path d="M150 165 Q160 170 170 165" stroke="#3F1F1F" stroke-width="2"/>
    <circle cx="155" cy="155" r="3" fill="#3F1F1F"/>
    <circle cx="165" cy="155" r="3" fill="#3F1F1F"/>

    <!-- 중간 당고 (캔디) -->
    <circle cx="200" cy="200" r="35" fill="#FF69B4"/>
    <!-- 캔디 줄무늬 -->
    <path d="M185 190 L215 190" stroke="#FFB6C1" stroke-width="4"/>
    <path d="M185 200 L215 200" stroke="#FFB6C1" stroke-width="4"/>
    <path d="M185 210 L215 210" stroke="#FFB6C1" stroke-width="4"/>
    <!-- 즐거운 표정 -->
    <path d="M190 205 Q200 210 210 205" stroke="#3F1F1F" stroke-width="2"/>
    <circle cx="195" cy="195" r="3" fill="#3F1F1F"/>
    <circle cx="205" cy="195" r="3" fill="#3F1F1F"/>

    <!-- 하단 당고 (마카롱) -->
    <circle cx="240" cy="240" r="35" fill="#E6E6FA"/>
    <!-- 마카롱 크림 -->
    <path d="M225 240 Q240 250 255 240" fill="#D8BFD8"/>
    <!-- 행복한 표정 -->
    <path d="M230 245 Q240 250 250 245" stroke="#3F1F1F" stroke-width="2"/>
    <circle cx="235" cy="235" r="2" fill="#3F1F1F"/>
    <circle cx="245" cy="235" r="2" fill="#3F1F1F"/>
</svg> 