<?xml version="1.0" encoding="UTF-8"?>
<svg width="400" height="400" viewBox="0 0 400 400" fill="none" xmlns="http://www.w3.org/2000/svg">
    <!-- 대각선 막대와 손잡이 -->
    <path d="M160 160 L240 240" stroke="#A0522D" stroke-width="16" stroke-linecap="round"/>
    <path d="M240 240 L280 280" stroke="#A0522D" stroke-width="16" stroke-linecap="round"/>
    
    <!-- 상단 당고 (고양이) -->
    <circle cx="160" cy="160" r="35" fill="#FFE5D9"/>
    <!-- 고양이 귀 -->
    <path d="M140 135 L150 150" stroke="#3F1F1F" stroke-width="3"/>
    <path d="M180 135 L170 150" stroke="#3F1F1F" stroke-width="3"/>
    <!-- 귀여운 표정 -->
    <path d="M150 165 Q160 170 170 165" stroke="#3F1F1F" stroke-width="2"/>
    <path d="M155 155 L150 150" stroke="#3F1F1F" stroke-width="2"/>
    <path d="M165 155 L170 150" stroke="#3F1F1F" stroke-width="2"/>

    <!-- 중간 당고 (팬더) -->
    <circle cx="200" cy="200" r="35" fill="#FFFFFF"/>
    <!-- 팬더 무늬 -->
    <circle cx="190" cy="190" r="10" fill="#3F1F1F"/>
    <circle cx="210" cy="190" r="10" fill="#3F1F1F"/>
    <!-- 졸린 표정 -->
    <path d="M190 205 Q200 210 210 205" stroke="#3F1F1F" stroke-width="2"/>
    <path d="M195 195 L185 195" stroke="#FFFFFF" stroke-width="2"/>
    <path d="M205 195 L215 195" stroke="#FFFFFF" stroke-width="2"/>

    <!-- 하단 당고 (토끼) -->
    <circle cx="240" cy="240" r="35" fill="#FFE4E1"/>
    <!-- 토끼 귀 -->
    <path d="M225 215 Q235 205 245 215" stroke="#3F1F1F" stroke-width="3"/>
    <path d="M235 215 Q245 205 255 215" stroke="#3F1F1F" stroke-width="3"/>
    <!-- 귀여운 표정 -->
    <path d="M230 245 Q240 250 250 245" stroke="#3F1F1F" stroke-width="2"/>
    <circle cx="235" cy="235" r="2" fill="#FF9999"/>
    <circle cx="245" cy="235" r="2" fill="#FF9999"/>
</svg> 