<?xml version="1.0" encoding="UTF-8"?>
<svg width="400" height="400" viewBox="0 0 400 400" fill="none" xmlns="http://www.w3.org/2000/svg">
    <!-- 대각선 막대와 손잡이 -->
    <path d="M160 160 L240 240" stroke="#A0522D" stroke-width="16" stroke-linecap="round"/>
    <path d="M240 240 L280 280" stroke="#A0522D" stroke-width="16" stroke-linecap="round"/>
    
    <!-- 상단 당고 (주황) -->
    <circle cx="160" cy="160" r="35" fill="#FFA500"/>
    <!-- 석양 효과 -->
    <path d="M145 155 Q160 145 175 155" stroke="#FF4500" stroke-width="3"/>
    <path d="M145 160 Q160 150 175 160" stroke="#FF6347" stroke-width="3"/>
    <!-- 따뜻한 표정 -->
    <path d="M150 165 Q160 170 170 165" stroke="#3F1F1F" stroke-width="2"/>
    <circle cx="155" cy="155" r="3" fill="#3F1F1F"/>
    <circle cx="165" cy="155" r="3" fill="#3F1F1F"/>

    <!-- 중간 당고 (분홍) -->
    <circle cx="200" cy="200" r="35" fill="#FFB6C1"/>
    <!-- 구름 효과 -->
    <path d="M185 195 Q200 185 215 195" stroke="#FFC0CB" stroke-width="3"/>
    <path d="M185 200 Q200 190 215 200" stroke="#FFC0CB" stroke-width="3"/>
    <!-- 부드러운 표정 -->
    <path d="M190 205 Q200 210 210 205" stroke="#3F1F1F" stroke-width="2"/>
    <circle cx="195" cy="195" r="2" fill="#3F1F1F"/>
    <circle cx="205" cy="195" r="2" fill="#3F1F1F"/>

    <!-- 하단 당고 (보라) -->
    <circle cx="240" cy="240" r="35" fill="#9370DB"/>
    <!-- 별 효과 -->
    <circle cx="230" cy="230" r="2" fill="#FFFFFF"/>
    <circle cx="250" cy="230" r="2" fill="#FFFFFF"/>
    <circle cx="240" cy="250" r="2" fill="#FFFFFF"/>
    <!-- 신비로운 표정 -->
    <path d="M230 245 Q240 250 250 245" stroke="#FFFFFF" stroke-width="2"/>
    <circle cx="235" cy="235" r="2" fill="#FFFFFF"/>
    <circle cx="245" cy="235" r="2" fill="#FFFFFF"/>
</svg> 