<?xml version="1.0" encoding="UTF-8"?>
<svg width="400" height="400" viewBox="0 0 400 400" fill="none" xmlns="http://www.w3.org/2000/svg">
    <!-- 대각선 막대와 손잡이 -->
    <path d="M160 160 L240 240" stroke="#A0522D" stroke-width="16" stroke-linecap="round"/>
    <path d="M240 240 L280 280" stroke="#A0522D" stroke-width="16" stroke-linecap="round"/>
    
    <!-- 상단 당고 (안드로이드) -->
    <circle cx="160" cy="160" r="35" fill="#32CD32"/>
    <!-- 안테나 -->
    <path d="M155 135 L155 125" stroke="#228B22" stroke-width="2"/>
    <path d="M165 135 L165 125" stroke="#228B22" stroke-width="2"/>
    <!-- 디지털 표정 -->
    <path d="M150 165 L170 165" stroke="#FFFFFF" stroke-width="2"/>
    <rect x="152" y="152" width="6" height="6" fill="#FFFFFF"/>
    <rect x="162" y="152" width="6" height="6" fill="#FFFFFF"/>

    <!-- 중간 당고 (회로) -->
    <circle cx="200" cy="200" r="35" fill="#4169E1"/>
    <!-- 회로 패턴 -->
    <path d="M185 200 L215 200" stroke="#87CEEB" stroke-width="1"/>
    <path d="M200 185 L200 215" stroke="#87CEEB" stroke-width="1"/>
    <circle cx="200" cy="200" r="10" stroke="#87CEEB" stroke-width="1" fill="none"/>
    <!-- 데이터 표정 -->
    <path d="M190 205 Q200 210 210 205" stroke="#00FFFF" stroke-width="2"/>
    <circle cx="195" cy="195" r="2" fill="#00FFFF"/>
    <circle cx="205" cy="195" r="2" fill="#00FFFF"/>

    <!-- 하단 당고 (로봇) -->
    <circle cx="240" cy="240" r="35" fill="#C0C0C0"/>
    <!-- 기계 부품 -->
    <rect x="230" y="230" width="20" height="20" stroke="#808080" stroke-width="2" fill="none"/>
    <circle cx="240" cy="240" r="5" stroke="#808080" stroke-width="1" fill="none"/>
    <!-- 메카닉 표정 -->
    <path d="M230 245 L250 245" stroke="#333333" stroke-width="2"/>
    <path d="M235 235 L230 230" stroke="#333333" stroke-width="2"/>
    <path d="M245 235 L250 230" stroke="#333333" stroke-width="2"/>
</svg> 