<?xml version="1.0" encoding="UTF-8"?>
<svg width="400" height="400" viewBox="0 0 400 400" fill="none" xmlns="http://www.w3.org/2000/svg">
    <!-- 대각선 막대와 손잡이 -->
    <path d="M160 160 L240 240" stroke="#A0522D" stroke-width="16" stroke-linecap="round"/>
    <path d="M240 240 L280 280" stroke="#A0522D" stroke-width="16" stroke-linecap="round"/>
    
    <!-- 상단 당고 (나비) -->
    <circle cx="160" cy="160" r="35" fill="#FFB6C1"/>
    <!-- 날개 무늬 -->
    <path d="M145 155 Q160 145 175 155" stroke="#FF69B4" stroke-width="2"/>
    <path d="M145 165 Q160 175 175 165" stroke="#FF69B4" stroke-width="2"/>
    <!-- 귀여운 표정 -->
    <path d="M150 165 Q160 170 170 165" stroke="#FF1493" stroke-width="2"/>
    <circle cx="155" cy="155" r="2" fill="#FF1493"/>
    <circle cx="165" cy="155" r="2" fill="#FF1493"/>

    <!-- 중간 당고 (단풍잎) -->
    <circle cx="200" cy="200" r="35" fill="#FF4500"/>
    <!-- 잎맥 -->
    <path d="M185 200 L215 200" stroke="#8B0000" stroke-width="2"/>
    <path d="M190 190 L210 190" stroke="#8B0000" stroke-width="2"/>
    <path d="M190 210 L210 210" stroke="#8B0000" stroke-width="2"/>
    <!-- 가을 표정 -->
    <path d="M190 205 Q200 210 210 205" stroke="#FFD700" stroke-width="2"/>
    <circle cx="195" cy="195" r="2" fill="#FFD700"/>
    <circle cx="205" cy="195" r="2" fill="#FFD700"/>

    <!-- 하단 당고 (물방울) -->
    <circle cx="240" cy="240" r="35" fill="#87CEEB"/>
    <!-- 반사광 -->
    <circle cx="230" cy="230" r="5" fill="#FFFFFF" fill-opacity="0.8"/>
    <circle cx="235" cy="235" r="3" fill="#FFFFFF" fill-opacity="0.6"/>
    <!-- 맑은 표정 -->
    <path d="M230 245 Q240 250 250 245" stroke="#4169E1" stroke-width="2"/>
    <circle cx="235" cy="235" r="2" fill="#4169E1"/>
    <circle cx="245" cy="235" r="2" fill="#4169E1"/>
</svg> 