<?xml version="1.0" encoding="UTF-8"?>
<svg width="400" height="400" viewBox="0 0 400 400" fill="none" xmlns="http://www.w3.org/2000/svg">
    <!-- 대각선 막대와 손잡이 -->
    <path d="M160 160 L240 240" stroke="#A0522D" stroke-width="16" stroke-linecap="round"/>
    <path d="M240 240 L280 280" stroke="#A0522D" stroke-width="16" stroke-linecap="round"/>
    
    <!-- 상단 당고 (페퍼로니) -->
    <circle cx="160" cy="160" r="35" fill="#FF4500"/>
    <!-- 페퍼로니 무늬 -->
    <circle cx="150" cy="150" r="6" fill="#8B0000"/>
    <circle cx="170" cy="150" r="6" fill="#8B0000"/>
    <circle cx="160" cy="170" r="6" fill="#8B0000"/>
    <!-- 매운 표정 -->
    <path d="M150 165 Q160 168 170 165" stroke="#3F1F1F" stroke-width="2"/>
    <path d="M155 155 L150 150" stroke="#3F1F1F" stroke-width="2"/>
    <path d="M165 155 L170 150" stroke="#3F1F1F" stroke-width="2"/>

    <!-- 중간 당고 (치즈) -->
    <circle cx="200" cy="200" r="35" fill="#FFD700"/>
    <!-- 치즈 녹은 효과 -->
    <path d="M185 190 Q200 200 215 190" stroke="#FFA500" stroke-width="4"/>
    <path d="M185 200 Q200 210 215 200" stroke="#FFA500" stroke-width="4"/>
    <!-- 부드러운 표정 -->
    <path d="M190 205 Q200 210 210 205" stroke="#3F1F1F" stroke-width="2"/>
    <circle cx="195" cy="195" r="3" fill="#3F1F1F"/>
    <circle cx="205" cy="195" r="3" fill="#3F1F1F"/>

    <!-- 하단 당고 (버섯) -->
    <circle cx="240" cy="240" r="35" fill="#DEB887"/>
    <!-- 버섯 무늬 -->
    <path d="M225 230 L255 230" stroke="#8B4513" stroke-width="2"/>
    <path d="M230 240 L250 240" stroke="#8B4513" stroke-width="2"/>
    <!-- 귀여운 표정 -->
    <path d="M230 245 Q240 250 250 245" stroke="#3F1F1F" stroke-width="2"/>
    <circle cx="235" cy="235" r="2" fill="#3F1F1F"/>
    <circle cx="245" cy="235" r="2" fill="#3F1F1F"/>
</svg> 