<?xml version="1.0" encoding="UTF-8"?>
<svg width="400" height="400" viewBox="0 0 400 400" fill="none" xmlns="http://www.w3.org/2000/svg">
    <!-- 대각선 막대와 손잡이 -->
    <path d="M160 160 L240 240" stroke="#A0522D" stroke-width="16" stroke-linecap="round"/>
    <path d="M240 240 L280 280" stroke="#A0522D" stroke-width="16" stroke-linecap="round"/>
    
    <!-- 상단 당고 (수박) -->
    <circle cx="160" cy="160" r="35" fill="#FF6B6B"/>
    <!-- 수박 무늬 -->
    <circle cx="150" cy="150" r="3" fill="#3F1F1F"/>
    <circle cx="170" cy="150" r="3" fill="#3F1F1F"/>
    <circle cx="160" cy="170" r="3" fill="#3F1F1F"/>
    <!-- 웃는 표정 -->
    <path d="M150 165 Q160 168 170 165" stroke="#3F1F1F" stroke-width="2"/>
    <circle cx="155" cy="155" r="3" fill="#3F1F1F"/>
    <circle cx="165" cy="155" r="3" fill="#3F1F1F"/>

    <!-- 중간 당고 (레모네이드) -->
    <circle cx="200" cy="200" r="35" fill="#FFD93D"/>
    <!-- 레몬 무늬 -->
    <path d="M190 190 L210 210" stroke="#FFB302" stroke-width="2"/>
    <path d="M210 190 L190 210" stroke="#FFB302" stroke-width="2"/>
    <!-- 상쾌한 표정 -->
    <path d="M190 200 Q200 205 210 200" stroke="#3F1F1F" stroke-width="2"/>
    <circle cx="195" cy="195" r="3" fill="#3F1F1F"/>
    <circle cx="205" cy="195" r="3" fill="#3F1F1F"/>

    <!-- 하단 당고 (소다) -->
    <circle cx="240" cy="240" r="35" fill="#4ECDC4"/>
    <!-- 거품 효과 -->
    <circle cx="230" cy="230" r="4" fill="#FFFFFF" fill-opacity="0.8"/>
    <circle cx="250" cy="230" r="3" fill="#FFFFFF" fill-opacity="0.8"/>
    <circle cx="240" cy="250" r="5" fill="#FFFFFF" fill-opacity="0.8"/>
    <!-- 시원한 표정 -->
    <path d="M230 240 Q240 245 250 240" stroke="#3F1F1F" stroke-width="2"/>
    <path d="M235 235 L245 235" stroke="#3F1F1F" stroke-width="2"/>
</svg> 