<?xml version="1.0" encoding="UTF-8"?>
<svg width="400" height="400" viewBox="0 0 400 400" fill="none" xmlns="http://www.w3.org/2000/svg">
    <!-- 대각선 막대와 손잡이 -->
    <path d="M160 160 L240 240" stroke="#A0522D" stroke-width="16" stroke-linecap="round"/>
    <path d="M240 240 L280 280" stroke="#A0522D" stroke-width="16" stroke-linecap="round"/>
    
    <!-- 상단 당고 (파라오) -->
    <circle cx="160" cy="160" r="35" fill="#FFD700"/>
    <!-- 왕관 -->
    <path d="M145 140 L175 140" stroke="#DAA520" stroke-width="4"/>
    <path d="M160 140 L160 130" stroke="#DAA520" stroke-width="4"/>
    <!-- 고대 문양 -->
    <path d="M150 150 L170 150" stroke="#DAA520" stroke-width="2"/>
    <path d="M150 155 L170 155" stroke="#DAA520" stroke-width="2"/>
    <!-- 위엄있는 표정 -->
    <path d="M150 165 Q160 170 170 165" stroke="#8B4513" stroke-width="2"/>
    <path d="M155 155 L150 150" stroke="#8B4513" stroke-width="2"/>
    <path d="M165 155 L170 150" stroke="#8B4513" stroke-width="2"/>

    <!-- 중간 당고 (스핑크스) -->
    <circle cx="200" cy="200" r="35" fill="#DEB887"/>
    <!-- 머리장식 -->
    <path d="M185 185 L215 185" stroke="#CD853F" stroke-width="3"/>
    <path d="M185 190 L215 190" stroke="#CD853F" stroke-width="2"/>
    <!-- 신비로운 표정 -->
    <path d="M190 205 Q200 210 210 205" stroke="#8B4513" stroke-width="2"/>
    <circle cx="195" cy="195" r="2" fill="#8B4513"/>
    <circle cx="205" cy="195" r="2" fill="#8B4513"/>

    <!-- 하단 당고 (피라미드) -->
    <circle cx="240" cy="240" r="35" fill="#F4A460"/>
    <!-- 피라미드 무늬 -->
    <path d="M225 230 L255 230" stroke="#D2691E" stroke-width="2"/>
    <path d="M230 240 L250 240" stroke="#D2691E" stroke-width="2"/>
    <path d="M235 250 L245 250" stroke="#D2691E" stroke-width="2"/>
    <!-- 고대의 표정 -->
    <path d="M230 245 Q240 250 250 245" stroke="#8B4513" stroke-width="2"/>
    <circle cx="235" cy="235" r="2" fill="#8B4513"/>
    <circle cx="245" cy="235" r="2" fill="#8B4513"/>
</svg> 