<?xml version="1.0" encoding="UTF-8"?>
<svg width="80" height="80" viewBox="0 0 80 80" fill="none" xmlns="http://www.w3.org/2000/svg">
    <!-- 배경 원 -->
    <circle cx="40" cy="40" r="36" fill="#F1F8F3"/>
    
    <!-- 메인 아이콘 -->
    <g transform="translate(24, 20)">
        <!-- 팔레트 모양 -->
        <path d="M16 0C7.16 0 0 7.16 0 16C0 24.84 7.16 32 16 32C24.84 32 32 24.84 32 16C32 7.16 24.84 0 16 0ZM6.4 16C6.4 14.232 7.832 12.8 9.6 12.8C11.368 12.8 12.8 14.232 12.8 16C12.8 17.768 11.368 19.2 9.6 19.2C7.832 19.2 6.4 17.768 6.4 16ZM16 25.6C14.232 25.6 12.8 24.168 12.8 22.4C12.8 20.632 14.232 19.2 16 19.2C17.768 19.2 19.2 20.632 19.2 22.4C19.2 24.168 17.768 25.6 16 25.6ZM22.4 19.2C20.632 19.2 19.2 17.768 19.2 16C19.2 14.232 20.632 12.8 22.4 12.8C24.168 12.8 25.6 14.232 25.6 16C25.6 17.768 24.168 19.2 22.4 19.2Z" 
              fill="#4A9C5D"/>
    </g>
</svg> 