<?xml version="1.0" encoding="UTF-8"?>
<svg width="80" height="80" viewBox="0 0 80 80" fill="none" xmlns="http://www.w3.org/2000/svg">
    <!-- 배경 원 -->
    <circle cx="40" cy="40" r="36" fill="#F1F8F3"/>
    
    <!-- 메인 아이콘 -->
    <g transform="translate(16, 16)">
        <!-- 팔레트 모양 -->
        <path d="M24 0C10.74 0 0 10.74 0 24C0 37.26 10.74 48 24 48C37.26 48 48 37.26 48 24C48 10.74 37.26 0 24 0ZM9.6 24C9.6 21.072 11.872 18.8 14.8 18.8C17.728 18.8 20 21.072 20 24C20 26.928 17.728 29.2 14.8 29.2C11.872 29.2 9.6 26.928 9.6 24ZM24 38.4C21.072 38.4 18.8 36.128 18.8 33.2C18.8 30.272 21.072 28 24 28C26.928 28 29.2 30.272 29.2 33.2C29.2 36.128 26.928 38.4 24 38.4ZM33.2 29.2C30.272 29.2 28 26.928 28 24C28 21.072 30.272 18.8 33.2 18.8C36.128 18.8 38.4 21.072 38.4 24C38.4 26.928 36.128 29.2 33.2 29.2Z" 
              fill="#4A9C5D"/>
    </g>
</svg> 