<?xml version="1.0" encoding="UTF-8"?>
<svg width="80" height="80" viewBox="0 0 80 80" fill="none" xmlns="http://www.w3.org/2000/svg">
    <!-- 배경 원 -->
    <circle cx="40" cy="40" r="36" fill="#F1F8F3"/>
    
    <!-- 메인 아이콘 -->
    <g transform="translate(16, 16)">
        <!-- 트로피 모양 -->
        <path d="M36 6H33V0H15V6H12C8.7 6 6 8.7 6 12V18C6 23.52 10.48 28 16 28H19.2C21.36 30.6 22.8 34.02 22.8 37.8V42H12V48H36V42H25.2V37.8C25.2 34.02 26.64 30.6 28.8 28H32C37.52 28 42 23.52 42 18V12C42 8.7 39.3 6 36 6ZM16 22C13.8 22 12 20.2 12 18V12H15V18C15 19.38 15.42 20.68 16.16 21.84L16 22ZM36 18C36 20.2 34.2 22 32 22L31.84 21.84C32.58 20.68 33 19.38 33 18V12H36V18Z" 
              fill="#4A9C5D"/>
    </g>
</svg> 