<?xml version="1.0" encoding="UTF-8"?>
<svg width="80" height="80" viewBox="0 0 80 80" fill="none" xmlns="http://www.w3.org/2000/svg">
    <!-- 배경 원 -->
    <circle cx="40" cy="40" r="36" fill="#F1F8F3"/>
    
    <!-- 메인 아이콘 -->
    <g transform="translate(20, 20)">
        <!-- 트로피 모양 -->
        <path d="M28 8H26V4H14V8H12C9.79 8 8 9.79 8 12V16C8 19.87 11.13 23 15 23H17.28C18.8 24.79 20 27.37 20 30V34H12V38H28V34H20V30C20 27.37 21.2 24.79 22.72 23H25C28.87 23 32 19.87 32 16V12C32 9.79 30.21 8 28 8ZM15 19C13.35 19 12 17.65 12 16V12H14V16C14 17.15 14.28 18.23 14.77 19H15ZM28 16C28 17.65 26.65 19 25 19H25.23C25.72 18.23 26 17.15 26 16V12H28V16Z" 
              fill="#4A9C5D"/>
    </g>
</svg> 